<?xml version="1.0" standalone="no"?>
<!DOCTYPE svg PUBLIC "-//W3C//DTD SVG 20010904//EN"
 "http://www.w3.org/TR/2001/REC-SVG-20010904/DTD/svg10.dtd">
<svg version="1.0" xmlns="http://www.w3.org/2000/svg"
 width="966.000000pt" height="1500.000000pt" viewBox="0 0 966.000000 1500.000000"
 preserveAspectRatio="xMidYMid meet">

<g transform="translate(0.000000,1500.000000) scale(0.100000,-0.100000)"
fill="#000000" stroke="none">
<path d="M16 14309 c4 -6 1 -15 -6 -19 -6 -4 -10 -16 -8 -28 2 -17 6 -15 20
13 15 29 15 34 2 39 -9 4 -12 2 -8 -5z"/>
<path d="M218 14063 c-10 -2 -21 -15 -24 -29 -3 -13 -10 -24 -15 -24 -5 0 -9
-7 -9 -16 0 -8 -4 -13 -9 -10 -14 9 -29 -17 -28 -46 1 -14 5 -24 8 -22 4 2 6
-8 7 -21 0 -30 -14 -33 -23 -4 -4 11 -16 24 -28 28 -19 7 -23 4 -27 -23 -4
-21 0 -35 10 -43 18 -15 60 -17 60 -3 0 6 5 10 11 10 5 0 8 -4 5 -9 -3 -5 4
-22 16 -37 12 -16 15 -23 8 -16 -23 20 -43 16 -31 -7 12 -21 -8 -47 -25 -33
-4 4 -3 0 3 -8 16 -21 9 -76 -8 -71 -8 2 -23 4 -34 5 -11 1 -30 13 -43 29 -13
15 -28 27 -33 27 -5 0 -9 -78 -9 -180 l0 -180 31 0 c27 0 30 -3 27 -27 -2 -17
-9 -28 -18 -28 -11 0 -15 -12 -15 -47 0 -25 -3 -49 -7 -53 -4 -4 -4 -14 -1
-23 4 -10 2 -13 -5 -8 -9 5 -12 -87 -12 -379 0 -281 3 -384 11 -379 6 3 14 2
18 -4 12 -20 63 -19 55 2 -3 7 3 22 13 32 17 17 17 18 0 11 -17 -6 -18 -3 -11
35 4 24 7 55 6 70 -2 35 13 44 31 18 13 -18 15 -18 38 -3 23 16 23 16 9 -2
-14 -17 -13 -18 13 -13 15 3 27 1 27 -3 0 -5 5 -9 10 -9 6 0 8 12 5 28 -6 25
-5 26 8 9 8 -10 13 -26 10 -36 -9 -34 77 -52 98 -20 5 8 9 10 9 4 0 -5 4 -4 9
4 11 16 39 8 47 -14 4 -9 -1 -24 -10 -34 -15 -16 -14 -19 4 -39 12 -12 26 -22
32 -22 12 0 57 -50 59 -65 1 -5 1 -17 0 -27 -2 -19 35 -48 62 -48 10 0 35 -17
55 -38 20 -20 50 -43 66 -50 27 -12 28 -15 21 -60 -4 -26 -11 -52 -16 -58 -5
-6 -7 -24 -5 -40 8 -61 -26 -96 -52 -54 -7 11 -17 20 -24 20 -7 0 -3 -6 8 -14
18 -14 18 -14 -8 -12 -17 2 -25 -1 -22 -9 3 -7 13 -12 22 -11 11 1 18 -8 20
-23 3 -15 0 -21 -8 -16 -6 4 -9 14 -5 22 4 12 3 13 -8 5 -8 -7 -17 -9 -21 -5
-16 16 -43 9 -43 -11 0 -12 -5 -33 -13 -48 -10 -21 -18 -26 -35 -22 -17 4 -22
1 -21 -16 1 -13 -9 -29 -24 -38 -14 -9 -22 -12 -18 -7 5 4 -1 15 -12 22 -27
19 -19 47 26 92 26 25 34 42 34 68 0 19 4 32 9 29 5 -3 3 13 -4 37 -8 26 -9
51 -4 65 13 35 -24 102 -56 102 -16 0 -25 -6 -25 -16 0 -18 -21 -41 -41 -45
-18 -3 -71 11 -86 23 -8 6 -18 3 -30 -12 -10 -12 -30 -28 -46 -36 -25 -14 -27
-13 -27 5 0 14 -5 19 -15 15 -8 -4 -15 -12 -15 -20 0 -8 -5 -14 -11 -14 -5 0
-8 -4 -5 -8 3 -5 -4 -19 -16 -32 -14 -14 -23 -19 -26 -12 -7 21 -38 13 -39
-10 -1 -13 -9 -28 -18 -34 -13 -10 -15 -75 -15 -542 0 -466 2 -531 15 -536 11
-4 19 3 27 22 7 15 13 28 14 30 5 10 32 -13 27 -24 -3 -8 0 -14 6 -14 6 0 11
-4 11 -10 0 -5 -7 -6 -17 -3 -11 4 -14 3 -9 -5 4 -7 0 -15 -9 -18 -14 -6 -14
-9 0 -30 21 -33 19 -54 -5 -49 -11 2 -20 0 -20 -5 0 -4 -9 -6 -20 -3 -20 5
-20 0 -20 -268 0 -243 3 -305 13 -243 1 10 10 30 20 44 21 30 21 40 2 76 -8
16 -15 37 -15 46 0 29 23 68 40 68 34 0 84 78 71 110 -5 14 -15 19 -46 24 -14
2 -18 14 -12 38 5 18 8 19 21 8 9 -7 16 -19 16 -27 0 -9 6 -13 14 -10 9 4 18
-2 22 -15 4 -13 9 -17 13 -9 8 12 37 11 59 -2 6 -5 12 -5 12 0 0 4 4 4 8 -2
14 -20 78 -49 106 -50 17 0 31 -6 34 -15 4 -12 3 -13 -10 -2 -14 11 -16 8 -20
-26 -2 -24 2 -44 10 -51 7 -7 10 -16 7 -21 -3 -4 13 -6 35 -3 27 4 40 2 40 -6
0 -7 4 -10 9 -6 5 3 13 0 17 -6 4 -8 3 -9 -4 -5 -7 4 -12 2 -12 -3 0 -6 -9
-11 -21 -11 -11 0 -17 -4 -14 -10 11 -18 -15 -10 -32 10 -17 20 -48 27 -55 13
-6 -15 -69 -54 -77 -48 -15 9 -40 -23 -34 -45 3 -11 0 -20 -6 -20 -6 0 -11 -7
-11 -16 0 -12 -7 -15 -24 -12 -17 4 -23 1 -19 -9 7 -17 -15 -17 -32 1 -20 19
-65 9 -65 -15 0 -11 -4 -19 -10 -19 -5 0 -12 -11 -16 -25 -3 -13 -12 -29 -20
-36 -11 -9 -14 -238 -14 -1435 0 -1353 1 -1424 17 -1422 36 3 53 -2 53 -16 0
-8 7 -16 15 -20 8 -3 15 -11 15 -18 0 -9 -3 -8 -10 2 -5 8 -10 11 -10 6 0 -5
-6 -3 -14 3 -10 8 -16 9 -21 1 -3 -6 -10 -8 -15 -5 -4 3 -6 -4 -3 -15 3 -11 9
-17 14 -14 5 3 9 -1 9 -9 0 -16 -27 -30 -41 -21 -5 3 -9 -1456 -9 -3645 l0
-3651 4830 0 4830 0 0 2088 c0 1351 -4 2082 -10 2072 -8 -13 -10 -12 -10 3 0
9 5 17 10 17 7 0 10 377 10 1110 l0 1110 -24 -11 c-16 -8 -29 -8 -42 -1 -13 7
-26 6 -46 -4 -24 -13 -27 -13 -22 1 4 9 -1 24 -10 34 -9 10 -13 22 -9 26 5 5
0 3 -10 -4 -15 -12 -17 -12 -12 2 4 8 2 18 -4 22 -6 3 -11 -2 -11 -12 0 -10
-4 -24 -9 -31 -6 -11 -11 -10 -25 3 -9 9 -13 21 -10 26 11 18 -40 59 -67 54
-19 -4 -33 4 -56 28 -16 17 -33 40 -37 51 -5 15 -2 17 18 12 31 -8 41 16 15
32 -16 10 -21 10 -25 -2 -4 -11 -10 -11 -30 -2 -13 6 -24 14 -24 18 0 5 -8 0
-18 -10 -10 -9 -14 -20 -9 -23 5 -4 3 -16 -4 -27 -12 -19 -10 -25 14 -50 l28
-29 -25 4 c-14 3 -26 9 -26 12 0 7 -15 11 -52 12 -15 0 -34 39 -19 39 11 0 11
43 0 57 -6 6 -8 17 -4 22 4 7 -4 10 -19 9 -15 -1 -29 -10 -32 -20 -6 -21 -20
-24 -27 -5 -2 6 3 17 11 23 17 12 9 49 -8 39 -5 -3 -10 0 -10 8 0 8 -11 17
-24 19 -19 4 -26 0 -30 -17 -3 -12 -17 -27 -31 -35 -14 -8 -28 -24 -32 -37 -3
-14 -11 -22 -18 -19 -9 3 -11 -2 -8 -15 4 -15 0 -22 -16 -26 -14 -4 -20 -11
-17 -20 3 -8 6 -19 6 -24 0 -6 4 -8 9 -5 5 3 12 -1 15 -10 9 -24 -2 -30 -17
-10 -13 17 -15 17 -46 -2 -21 -13 -28 -22 -19 -25 10 -4 9 -6 -2 -6 -9 -1 -21
4 -28 11 -9 9 -12 9 -12 -3 0 -8 5 -20 10 -25 30 -30 13 -94 -24 -94 -19 0
-36 96 -20 118 9 14 9 21 -1 35 -14 19 -65 19 -72 0 -3 -7 -8 -11 -12 -9 -3 2
-6 -11 -6 -29 0 -18 3 -31 8 -28 4 2 7 2 7 -1 0 -9 -32 -39 -63 -59 -15 -10
-25 -22 -22 -26 3 -5 -2 -12 -11 -15 -8 -3 -12 -2 -9 4 3 6 -4 14 -17 19 -49
18 -68 22 -67 14 4 -22 -3 -24 -22 -7 -11 10 -35 19 -52 20 -28 2 -30 1 -13
-11 10 -8 15 -19 10 -26 -4 -8 -3 -10 4 -5 11 7 17 -16 13 -54 -1 -13 0 -13
11 0 13 16 32 20 42 9 4 -3 -1 -12 -11 -20 -11 -9 -14 -10 -9 -1 4 6 2 12 -3
12 -6 0 -11 -4 -11 -10 0 -15 -16 -12 -34 6 -9 8 -16 11 -16 5 0 -5 5 -13 10
-16 14 -8 3 -25 -16 -25 -8 0 -13 4 -10 9 3 5 0 13 -7 19 -18 14 -67 21 -73
10 -7 -11 -63 42 -64 60 0 6 -5 12 -11 12 -5 0 -7 5 -4 10 9 15 -27 11 -49 -5
-11 -8 -15 -15 -10 -15 22 0 11 -47 -21 -86 -19 -23 -32 -44 -29 -47 3 -3 -3
-10 -15 -16 -13 -7 -22 -8 -26 -1 -3 5 -15 10 -26 10 -10 0 -19 4 -19 9 0 5
-9 7 -20 4 -32 -8 -22 -29 12 -25 3 1 9 -5 12 -13 3 -9 0 -12 -8 -9 -7 3 -28
-7 -45 -22 -27 -22 -34 -25 -42 -13 -5 8 -7 20 -4 27 3 7 0 10 -5 7 -6 -3 -10
-1 -10 4 0 15 -47 14 -53 -1 -4 -10 -7 -10 -18 0 -11 10 -10 12 4 12 20 0 23
16 5 23 -24 7 -47 -4 -41 -21 4 -14 3 -15 -5 -2 -6 8 -8 18 -6 22 3 4 -2 8
-10 8 -9 0 -16 7 -16 15 0 8 4 15 9 15 6 0 9 9 8 19 0 11 -5 17 -9 15 -4 -3
-8 0 -8 6 0 7 -6 8 -19 0 -27 -14 -27 -14 -28 18 -2 69 -22 102 -46 78 -22
-23 -36 -20 -43 9 -3 14 -10 25 -16 25 -5 0 -6 5 -3 10 3 6 -1 10 -9 10 -17 0
-40 35 -32 48 3 5 -8 13 -23 19 -21 8 -28 7 -28 -3 0 -7 4 -11 9 -8 4 3 8 0 8
-5 0 -14 -17 -14 -25 -1 -4 6 -22 9 -40 8 -19 -1 -36 0 -39 3 -3 2 -6 26 -7
51 -3 56 -18 66 -49 33 -13 -14 -26 -22 -30 -20 -4 2 -13 -11 -20 -30 -13 -34
-33 -45 -82 -45 -29 0 -43 24 -32 54 4 10 1 16 -7 17 -8 0 -24 2 -37 5 -36 7
-61 -27 -57 -77 2 -24 1 -38 -3 -33 -4 6 -16 13 -28 16 -17 4 -21 1 -18 -18 1
-14 -4 -31 -12 -38 -8 -8 -14 -20 -14 -26 0 -6 -6 -10 -12 -9 -7 1 -22 1 -33
0 -15 -1 -17 -3 -6 -10 10 -7 11 -13 2 -30 -7 -11 -17 -21 -23 -21 -6 0 -9 -3
-5 -6 3 -4 -1 -13 -9 -22 -14 -13 -12 -18 13 -45 20 -22 23 -28 10 -24 -10 4
-21 7 -23 7 -2 0 -4 7 -4 15 0 9 -7 18 -15 21 -8 4 -12 11 -8 17 3 6 1 7 -5 3
-13 -8 -5 -36 11 -36 6 0 1 -10 -10 -22 -11 -13 -18 -29 -16 -35 3 -7 -2 -20
-10 -28 -31 -30 -80 -10 -92 38 -9 33 -40 44 -64 23 -24 -22 -52 -20 -58 4 -3
11 -9 20 -13 20 -4 0 -15 16 -26 35 -10 19 -24 36 -31 36 -7 1 -18 2 -24 3 -7
0 -17 10 -23 21 -29 51 -78 67 -105 34 -26 -32 -35 -20 -16 24 18 44 27 50 59
38 21 -9 30 -6 55 18 40 38 39 56 -6 99 -20 20 -31 38 -24 40 6 2 9 7 7 11 -3
4 10 5 29 3 26 -3 34 0 37 15 4 18 -26 53 -44 53 -6 0 -12 -9 -15 -20 -5 -20
-49 -47 -90 -54 -11 -3 -31 -10 -43 -18 -18 -10 -24 -10 -27 0 -3 6 -9 10 -14
6 -13 -8 -11 20 3 34 9 9 9 12 -2 12 -10 1 -7 7 9 20 12 11 28 17 35 13 6 -3
8 -3 4 2 -4 4 1 15 11 24 10 9 29 35 41 58 l23 41 -22 36 c-21 34 -38 41 -52
23 -3 -5 -12 5 -19 22 -7 17 -18 31 -25 31 -16 0 -26 25 -19 45 10 25 78 -3
69 -28 -7 -18 22 -50 36 -41 8 5 10 3 4 -6 -5 -9 -4 -11 3 -6 7 4 12 14 12 22
0 8 4 14 10 14 5 0 1 16 -10 35 -15 28 -18 41 -10 55 8 16 8 18 -5 14 -8 -3
-12 -10 -9 -15 3 -5 0 -9 -5 -9 -6 0 -11 7 -11 15 0 8 -3 14 -7 14 -5 -1 -11
-1 -15 0 -8 1 40 93 53 101 5 3 -2 12 -14 19 -20 13 -21 13 -9 -2 9 -10 10
-17 2 -22 -5 -3 -10 -1 -10 5 0 7 -6 10 -14 7 -8 -3 -17 1 -20 9 -4 10 -1 13
7 9 6 -3 2 2 -10 11 -13 9 -23 26 -23 39 0 20 5 22 60 22 65 0 64 2 60 -64 -1
-18 3 -34 9 -34 6 -1 15 -2 20 -3 6 0 15 -6 22 -13 18 -18 -8 -48 -27 -32 -8
6 -14 8 -14 5 0 -4 -10 -2 -22 4 l-23 11 22 -17 c19 -13 20 -19 10 -41 -9 -21
-8 -27 7 -39 13 -9 24 -10 37 -3 18 9 19 5 19 -55 0 -51 3 -65 18 -71 34 -15
42 -13 59 16 20 33 38 39 30 9 -3 -11 -1 -20 5 -20 6 0 8 -7 4 -15 -4 -12 0
-14 22 -8 15 4 37 7 50 6 13 0 28 7 34 17 11 17 15 17 40 4 15 -8 32 -23 38
-33 6 -12 17 -17 28 -14 10 2 24 -3 31 -11 21 -25 52 -3 45 33 -5 22 1 35 29
66 29 31 35 45 33 79 -1 29 -5 40 -15 38 -7 -1 -24 9 -37 24 -20 21 -27 24
-40 13 -8 -6 -17 -9 -21 -5 -4 3 3 13 15 22 19 13 20 18 11 37 -7 12 -15 24
-19 27 -10 8 -40 72 -40 87 0 7 3 13 8 13 13 1 98 84 106 104 5 16 -7 33 -60
82 -71 66 -103 74 -95 22 1 -8 -15 -12 -38 -8 -8 1 -22 11 -32 23 -14 17 -18
18 -19 6 0 -17 -49 -73 -67 -76 -61 -12 -93 -11 -107 3 -9 8 -32 16 -51 17
-33 2 -51 19 -39 38 3 5 -6 9 -20 9 -14 0 -26 -5 -26 -11 0 -5 -5 -7 -12 -3
-6 4 -3 -4 8 -18 10 -14 23 -24 27 -21 7 4 7 -13 -3 -74 0 -2 -10 -3 -22 -3
-13 0 -32 -7 -42 -15 -11 -8 -32 -15 -47 -15 -15 0 -29 -5 -31 -12 -6 -16 -65
-19 -78 -3 -8 9 -7 17 5 28 8 9 11 18 7 21 -5 3 -14 -3 -22 -14 -7 -10 -19
-16 -27 -13 -7 3 -13 0 -13 -7 0 -7 -7 -10 -15 -7 -8 4 -17 2 -20 -4 -4 -5
-11 -7 -16 -4 -5 4 -9 1 -9 -4 0 -6 -3 -10 -7 -10 -21 3 -31 -3 -41 -25 -9
-19 -8 -25 4 -30 8 -3 14 -1 14 4 0 15 41 12 73 -5 27 -14 28 -14 23 8 l-6 22
11 -22 c13 -24 -1 -80 -19 -76 -6 2 -9 -3 -7 -10 3 -6 -4 -18 -16 -25 -17 -11
-24 -11 -44 2 -14 9 -31 16 -39 16 -8 0 -23 8 -32 18 -16 15 -17 15 -12 1 4
-11 -3 -26 -18 -40 l-25 -24 9 26 c9 22 8 25 -11 25 -13 -1 -26 10 -36 29 -9
16 -24 38 -34 47 -11 9 -16 22 -12 27 9 16 1 13 -23 -8 -12 -10 -22 -26 -22
-35 0 -10 -8 -16 -21 -16 -16 0 -19 3 -11 13 15 18 15 29 0 38 -9 6 -7 9 9 9
15 0 21 5 17 14 -3 7 3 16 13 20 15 6 15 8 3 16 -12 8 -10 10 8 10 13 0 21 -3
19 -7 -3 -5 1 -14 9 -21 11 -10 15 -9 23 7 8 15 7 18 -5 17 -22 -2 -56 46 -48
67 8 22 23 22 41 0 8 -10 12 -12 8 -5 -9 18 6 15 21 -5 16 -22 18 -37 3 -27
-7 4 -10 1 -7 -7 3 -8 12 -13 19 -11 11 3 11 1 2 -9 -10 -10 -9 -15 5 -25 23
-18 32 -17 32 1 0 8 -4 15 -10 15 -5 0 -6 9 -2 21 5 11 12 20 17 19 23 -4 19
34 -7 62 -15 17 -25 35 -22 40 4 6 10 5 15 -3 6 -10 9 -10 9 -2 0 7 -10 17
-21 24 -17 9 -20 8 -14 -3 4 -7 -3 -2 -15 12 -20 23 -20 23 -10 3 9 -19 8 -23
-5 -23 -8 0 -15 6 -15 13 0 7 -3 8 -8 2 -4 -5 -13 -11 -20 -13 -21 -4 -79 36
-85 59 -3 12 -10 18 -16 14 -13 -7 -14 5 -2 24 5 8 16 11 29 7 11 -4 23 -2 27
5 5 7 16 2 32 -17 13 -16 22 -23 18 -16 -7 14 -6 14 60 18 56 3 88 -9 109 -41
13 -20 13 -25 -3 -41 -9 -11 -18 -23 -18 -29 -2 -20 19 -46 44 -56 21 -8 29
-6 44 12 18 21 18 24 3 40 -15 17 -15 20 0 44 9 14 21 25 26 25 13 0 22 -18
11 -24 -13 -8 -3 -38 23 -71 13 -16 28 -25 34 -21 16 10 15 43 0 49 -7 3 1 6
18 6 17 1 37 -6 44 -14 14 -17 59 -20 61 -5 1 6 2 16 3 23 1 6 -2 17 -6 24
-12 15 0 60 18 67 8 3 17 -1 21 -9 4 -13 9 -11 24 7 10 13 23 28 29 35 5 7 7
19 4 28 -6 14 -9 14 -29 1 -21 -14 -26 -13 -52 7 -15 12 -30 24 -33 27 -15 19
-44 19 -62 0 -21 -23 -48 -27 -48 -7 0 14 -49 65 -51 54 -1 -4 -2 -12 -3 -18
-2 -23 -36 -37 -60 -26 -25 12 -53 47 -37 47 5 0 7 9 4 19 -4 16 0 19 21 17
15 -2 29 1 32 5 3 5 2 9 -3 9 -4 0 -14 13 -21 28 -12 28 -42 50 -72 56 -39 6
-104 96 -81 111 9 5 67 -45 64 -55 -1 -3 9 -6 23 -6 23 0 23 1 8 25 -15 22
-15 25 0 36 13 10 14 18 7 38 -8 21 -15 25 -38 21 -15 -3 -32 -9 -37 -15 -14
-13 -46 -11 -46 2 0 8 -5 7 -16 -2 -11 -9 -17 -10 -22 -1 -4 6 -21 13 -37 16
-37 7 -56 32 -49 63 5 17 1 28 -12 37 -16 12 -17 17 -6 42 11 22 11 30 -1 41
-14 14 -16 13 -75 -38 -8 -6 -24 -12 -37 -12 -20 0 -17 -6 30 -49 56 -54 64
-85 20 -85 -13 0 -24 2 -23 6 1 3 -4 17 -10 31 -6 14 -11 22 -11 18 -1 -4 -15
-3 -31 2 -17 5 -28 5 -25 0 10 -17 -17 -22 -34 -6 -31 28 -45 12 -15 -18 14
-14 14 -19 -2 -45 -17 -29 -18 -30 -53 -15 -20 8 -45 25 -56 38 -16 19 -30 23
-73 22 -41 -1 -53 -5 -58 -18 -6 -19 -24 -25 -24 -7 0 5 -4 7 -10 4 -5 -3 -10
-1 -10 5 0 6 6 13 14 16 8 3 17 12 20 20 4 10 2 12 -6 8 -7 -5 -9 1 -4 19 3
14 1 29 -4 32 -6 4 -8 11 -5 16 4 5 2 9 -4 9 -16 0 -40 -41 -34 -57 3 -8 2
-18 -3 -22 -23 -16 -42 -58 -33 -74 7 -11 3 -30 -11 -62 -22 -48 -26 -50 -62
-36 -48 19 -63 24 -71 22 -4 -1 -3 8 3 19 9 16 8 20 -5 20 -8 0 -15 4 -15 9 0
4 -12 6 -26 3 -25 -4 -94 25 -94 40 0 22 -19 3 -37 -38 -26 -55 -18 -88 22
-98 18 -5 27 -15 32 -36 3 -17 10 -33 14 -36 5 -3 7 -10 4 -15 -4 -5 -16 -2
-28 6 -13 8 -35 12 -50 9 -15 -2 -35 0 -44 5 -21 11 -42 -7 -35 -33 3 -13 1
-17 -6 -12 -8 5 -10 2 -6 -9 4 -9 15 -15 28 -13 15 2 22 -3 24 -19 3 -17 -2
-23 -17 -24 -12 -1 -27 -2 -33 -3 -8 -1 -13 11 -13 27 -1 17 -10 33 -25 44
-17 12 -21 13 -16 2 4 -8 0 -5 -8 5 -13 16 -16 17 -16 4 0 -18 -34 -51 -43
-41 -4 3 -7 -4 -7 -16 0 -16 5 -21 14 -18 18 7 36 -12 36 -39 0 -20 11 -26 73
-45 39 -12 77 -23 84 -25 6 -1 9 -12 6 -23 -6 -23 -30 -22 -91 5 -18 8 -36 13
-41 9 -14 -8 -42 6 -34 18 4 6 1 7 -6 3 -7 -5 -18 0 -26 10 -8 11 -15 15 -15
9 0 -5 -4 -4 -8 2 -4 7 -18 14 -31 15 -19 2 -26 -4 -35 -28 -6 -17 -16 -29
-23 -27 -6 2 -14 -1 -18 -6 -9 -16 -35 -13 -35 4 0 8 -4 15 -9 15 -11 0 9 60
27 78 17 19 15 29 -7 35 -30 8 -67 -52 -41 -68 14 -8 -6 -45 -25 -45 -22 0
-30 22 -12 35 10 7 17 16 17 20 0 4 -7 2 -15 -5 -20 -17 -32 -5 -15 15 15 18
0 20 -19 2 -11 -9 -10 -7 0 11 8 12 17 22 21 22 10 0 3 33 -8 37 -6 2 -19 -4
-29 -13 -11 -8 -14 -13 -8 -9 9 4 11 1 7 -10 -4 -11 -13 -14 -28 -9 -20 6 -20
6 -2 -9 19 -14 32 -92 14 -81 -5 3 -8 14 -8 24 0 10 -4 22 -10 25 -5 3 -10 2
-10 -4 0 -5 -15 -9 -32 -9 -53 0 -91 -10 -100 -26 -5 -8 -15 -22 -23 -30 -16
-16 -20 -30 -7 -22 5 3 18 -4 30 -14 12 -11 28 -20 37 -20 8 0 15 -5 15 -11 0
-6 9 -8 20 -4 11 3 20 2 20 -3 0 -17 39 -1 45 18 5 16 10 17 35 8 17 -5 30
-14 30 -20 0 -5 4 -7 9 -3 5 3 12 1 16 -5 10 -16 45 -12 45 5 0 17 9 19 28 6
10 -6 8 -10 -8 -14 -16 -4 -21 -11 -18 -25 3 -11 1 -28 -5 -38 -20 -34 -17
-42 12 -34 14 4 25 13 23 19 -1 7 3 21 9 33 10 18 9 20 -5 15 -10 -4 -16 -1
-16 9 0 8 5 12 10 9 6 -3 13 1 16 10 5 11 10 13 19 5 6 -5 15 -7 18 -3 4 3 7
1 7 -6 0 -8 5 -7 16 3 24 25 54 20 54 -8 0 -27 -20 -39 -41 -25 -26 16 -36 9
-35 -23 1 -28 4 -32 34 -33 17 -1 32 2 32 7 0 4 8 8 18 8 10 0 22 4 27 9 19
17 82 22 94 7 12 -14 5 -46 -11 -46 -5 0 -6 -4 -3 -10 11 -18 36 -11 33 10 -2
10 0 19 5 20 26 1 36 -2 56 -19 12 -11 40 -22 62 -26 36 -6 43 -4 65 22 19 21
23 23 19 8 -6 -18 -5 -18 5 -2 6 9 8 22 5 27 -6 10 13 34 30 37 13 2 30 -19
30 -37 0 -8 -4 -18 -10 -22 -6 -5 -6 -8 1 -8 15 0 30 21 28 40 -1 8 -2 25 -3
38 0 13 -5 21 -10 18 -12 -8 -75 54 -89 87 -6 15 -16 27 -22 27 -6 0 -6 9 0
25 10 26 4 55 -12 55 -5 0 -6 5 -2 12 5 7 2 9 -9 5 -19 -7 -32 22 -17 37 8 8
9 6 5 -6 -6 -14 0 -16 42 -12 26 3 60 5 76 5 22 0 27 4 27 24 0 27 -9 32 -28
13 -6 -6 -14 -9 -18 -6 -3 4 3 15 14 26 17 17 21 18 26 5 4 -8 12 -13 20 -10
8 3 22 -3 32 -14 9 -10 25 -19 35 -19 20 0 51 38 43 52 -3 4 2 11 11 15 19 7
37 -15 30 -35 -3 -7 3 -24 12 -38 12 -19 18 -22 24 -12 6 8 9 -2 9 -27 0 -35
-4 -43 -30 -59 -35 -20 -32 -32 10 -41 17 -4 30 -10 30 -15 0 -4 9 -10 19 -13
13 -3 18 0 15 8 -8 19 36 55 67 55 19 0 30 6 34 20 11 35 60 46 100 23 11 -7
16 -13 12 -13 -4 0 -2 -10 5 -22 7 -13 11 -26 10 -30 -1 -5 2 -8 7 -8 5 0 12
-7 15 -16 5 -12 1 -14 -15 -9 -15 5 -19 4 -15 -4 4 -6 0 -14 -9 -17 -10 -4
-15 -14 -12 -26 3 -12 -1 -22 -10 -25 -11 -4 -12 -8 -2 -13 6 -5 9 -16 5 -25
-5 -15 -8 -15 -21 -1 -8 8 -15 19 -15 24 0 14 -28 23 -35 12 -8 -13 5 -60 17
-60 6 0 8 -7 5 -15 -4 -8 -2 -17 4 -20 5 -4 7 -10 4 -15 -3 -5 5 -14 17 -21
13 -6 20 -8 16 -4 -4 4 4 18 17 31 14 13 25 29 25 36 0 9 3 9 11 -2 8 -11 9
-9 3 10 -13 45 -9 55 24 69 30 14 45 41 21 41 -8 0 -8 5 1 15 7 8 10 22 6 30
-4 11 1 15 17 15 13 0 28 5 34 11 8 8 15 5 24 -12 7 -13 12 -25 11 -26 -4 -9
22 -63 30 -63 14 0 1 -46 -19 -70 -10 -11 -28 -20 -40 -20 -13 0 -23 -5 -23
-11 0 -5 4 -8 9 -5 5 3 9 0 8 -7 -1 -28 3 -47 11 -45 4 1 17 -2 30 -6 16 -5
29 -3 42 9 26 24 35 2 14 -35 -13 -22 -23 -28 -39 -24 -14 3 -28 -3 -45 -21
l-25 -27 31 5 c31 5 41 -10 21 -29 -4 -4 -7 -15 -7 -25 0 -9 -8 -19 -18 -21
-18 -5 -42 13 -42 31 0 6 -7 8 -15 5 -8 -4 -15 -1 -15 5 0 8 -6 7 -20 -1 -16
-10 -22 -10 -28 -1 -5 7 -18 11 -30 8 -12 -2 -28 2 -36 10 -12 12 -16 12 -29
-3 -8 -9 -17 -34 -21 -54 -4 -21 -12 -40 -17 -44 -14 -8 -60 16 -53 28 4 5 -3
4 -14 -3 -18 -11 -24 -10 -41 5 -11 10 -19 30 -19 44 0 18 -13 42 -41 72 -22
25 -41 40 -41 34 0 -7 -9 -14 -19 -17 -20 -5 -22 -30 -4 -48 7 -7 -2 -22 -29
-50 -43 -43 -52 -46 -74 -24 -9 8 -26 15 -40 15 -15 0 -24 -6 -24 -15 0 -8 -6
-15 -14 -15 -8 0 -18 -6 -22 -12 -4 -7 -4 -10 1 -6 5 5 15 -1 22 -12 12 -17
12 -23 1 -35 -38 -42 -40 -46 -28 -60 8 -9 8 -15 0 -20 -6 -3 -8 -10 -5 -15 3
-5 -2 -13 -12 -18 -21 -12 -87 34 -79 55 3 8 2 12 -3 9 -5 -3 -11 1 -15 9 -6
18 -30 21 -24 3 5 -15 -27 -48 -47 -48 -8 0 -15 7 -15 15 0 14 9 25 45 50 16
11 18 16 7 27 -11 11 -12 10 -7 -7 5 -15 0 -12 -19 10 -14 16 -28 42 -31 57
-6 26 -8 27 -23 11 -16 -15 -17 -15 -20 0 -6 30 -54 25 -90 -8 -19 -18 -29
-21 -38 -14 -7 6 -22 8 -34 4 -11 -3 -34 -7 -51 -7 -17 -1 -33 -7 -36 -14 -3
-8 -10 -11 -17 -7 -6 4 -6 0 2 -9 10 -13 10 -18 1 -24 -8 -5 -9 -3 -4 6 5 8 4
11 -3 7 -5 -4 -8 -16 -5 -27 3 -12 0 -20 -7 -20 -7 0 -10 -6 -7 -14 4 -10 0
-12 -15 -8 -14 3 -19 1 -14 -6 4 -7 2 -12 -4 -12 -6 0 -8 -4 -5 -10 10 -16 -6
-12 -26 6 -21 19 -49 12 -49 -11 0 -8 9 -23 20 -32 11 -10 20 -28 20 -41 0
-19 -3 -22 -13 -13 -8 6 -17 8 -20 4 -12 -11 -8 -23 7 -23 17 0 30 -30 18 -42
-14 -14 -60 12 -65 38 -2 12 1 28 7 35 6 7 2 6 -11 -2 -12 -7 -19 -17 -17 -21
3 -4 -1 -8 -8 -8 -9 0 -10 -2 -1 -8 8 -5 6 -13 -7 -29 -9 -12 -21 -19 -24 -15
-4 3 -4 -1 0 -11 4 -12 1 -17 -10 -17 -14 0 -20 11 -17 32 0 4 -8 6 -19 5 -11
-1 -20 -6 -20 -11 0 -5 -3 -6 -7 -3 -11 11 -32 -63 -28 -99 1 -19 -1 -34 -6
-34 -5 0 -9 4 -9 8 0 10 -47 34 -76 39 -18 3 -21 -1 -16 -23 2 -14 0 -29 -6
-33 -17 -10 5 -84 23 -77 8 3 12 -2 10 -12 -2 -9 -4 -21 -4 -25 -1 -4 -10 -3
-20 3 -26 13 -34 13 -25 -2 4 -7 -2 -5 -13 5 -20 18 -22 18 -31 1 -6 -11 -7
-27 -1 -41 7 -18 5 -23 -9 -24 -9 0 -35 -8 -56 -18 l-39 -17 26 -21 c15 -11
24 -23 21 -25 -3 -3 2 -8 10 -11 10 -4 13 -1 9 9 -4 10 0 12 11 8 16 -6 20
-16 17 -47 -1 -9 5 -20 13 -23 17 -6 21 -31 10 -58 -3 -9 -9 -14 -13 -12 -15
9 -4 -51 14 -81 21 -35 30 -40 40 -23 4 7 13 6 26 -1 19 -10 18 -12 -18 -50
-21 -22 -37 -47 -35 -56 3 -11 -1 -14 -13 -9 -10 3 -14 2 -9 -5 3 -6 -2 -26
-12 -44 -16 -31 -16 -34 -1 -50 9 -9 17 -14 17 -10 0 3 9 1 19 -4 14 -8 20 -7
25 4 3 8 13 15 22 15 11 0 14 -5 10 -16 -3 -9 -6 -18 -6 -20 0 -2 -7 -4 -15
-4 -8 0 -15 -4 -15 -10 0 -5 11 -10 25 -10 21 0 36 -5 74 -27 8 -5 -24 -35
-52 -50 -36 -18 -93 -24 -124 -12 -15 6 -23 5 -23 -2 0 -8 -4 -8 -14 0 -7 6
-21 9 -30 5 -20 -8 -21 -34 -1 -34 9 0 21 -12 28 -27 6 -16 16 -31 21 -34 5
-4 5 -12 2 -18 -8 -12 -84 -10 -104 2 -5 4 -16 6 -24 4 -7 -2 -10 -2 -5 0 4 3
5 9 2 14 -5 7 -40 -6 -55 -21 -12 -12 -37 -3 -61 23 -20 22 -28 25 -36 15 -14
-19 -24 -50 -14 -44 5 3 14 -1 21 -9 11 -13 8 -14 -19 -9 -18 4 -31 2 -31 -4
0 -6 -19 -8 -47 -5 -44 3 -49 2 -64 -25 -9 -16 -13 -36 -9 -47 7 -19 -4 -35
-25 -35 -5 0 -3 5 5 11 12 8 10 9 -10 7 -17 -2 -24 1 -22 10 1 8 -2 11 -8 7
-6 -4 -8 -16 -4 -28 6 -22 6 -22 -9 -2 -14 18 -14 22 10 47 24 25 24 26 4 21
-13 -3 -21 -1 -21 7 0 8 -9 11 -25 8 -15 -3 -32 2 -44 13 -11 11 -25 19 -31
19 -6 0 -8 6 -4 13 4 7 3 9 -2 4 -5 -5 -10 -13 -10 -18 -3 -22 -5 -23 -14 -9
-8 12 -10 12 -10 1 0 -11 -3 -11 -15 -1 -12 10 -18 10 -30 0 -8 -7 -15 -9 -15
-5 0 4 -7 2 -15 -5 -13 -11 -20 -9 -40 10 -13 13 -22 27 -19 31 6 10 -23 57
-50 82 -11 10 -32 17 -46 16 -14 0 -27 0 -30 1 -3 1 -12 3 -21 5 -31 6 -64 18
-69 25 -3 4 -18 13 -35 21 -22 10 -30 22 -32 43 -1 16 -7 34 -13 40 -8 8 -11
7 -8 -4 2 -9 -4 -15 -17 -15 -11 0 -20 7 -20 15 0 8 6 14 13 12 6 -1 12 2 12
8 0 6 10 5 25 -2 13 -6 22 -15 19 -19 -3 -5 9 -6 26 -3 16 4 30 2 30 -3 0 -5
9 -9 19 -9 11 0 17 4 15 8 -3 4 15 8 40 8 40 0 46 3 67 36 16 27 24 32 30 22
7 -10 9 -9 9 5 0 10 4 16 9 13 8 -6 22 16 26 39 2 14 -47 54 -67 55 -9 0 -21
7 -26 16 -7 13 -23 16 -73 14 -168 -6 -163 -6 -188 19 l-24 24 32 -5 c28 -4
31 -2 25 16 -4 12 -11 23 -16 24 -4 2 -15 10 -22 18 -8 8 -19 14 -25 14 -29 0
16 59 45 60 19 0 40 98 22 101 -5 1 -13 2 -18 3 -11 1 -50 55 -50 69 0 5 5 5
10 2 6 -3 10 -1 10 4 0 6 8 11 18 11 38 0 47 15 34 58 -7 22 -19 43 -27 46
-17 6 -21 36 -5 36 20 0 9 21 -21 39 -34 21 -66 17 -91 -11 -16 -19 -17 -19
-37 1 -26 26 -41 26 -69 1 -12 -11 -25 -20 -31 -20 -16 0 -18 -24 -4 -39 8 -7
30 -15 48 -16 30 -2 104 -46 113 -67 2 -4 12 -8 23 -8 10 0 19 -7 19 -15 0 -8
-5 -15 -11 -15 -5 0 -7 4 -4 10 6 9 -16 4 -40 -9 -5 -3 -19 -6 -30 -8 -24 -3
-105 -13 -122 -15 -8 -1 -9 -7 -2 -19 13 -25 30 -34 61 -30 26 2 33 -6 29 -31
0 -5 4 -8 10 -8 6 0 9 7 6 14 -4 11 -1 13 10 9 11 -4 14 -2 9 5 -11 19 25 14
47 -5 10 -10 26 -18 35 -18 28 0 24 -23 -12 -56 -20 -18 -34 -34 -31 -37 6 -7
-35 -42 -49 -42 -6 0 -24 -11 -39 -24 -24 -21 -27 -28 -17 -45 13 -26 4 -26
-37 -1 -18 10 -54 25 -80 33 -52 15 -56 24 -36 73 7 17 9 35 5 38 -3 4 2 4 12
0 14 -5 17 -4 12 5 -4 6 2 32 13 56 l21 44 -28 31 c-22 23 -36 30 -60 28 -18
-1 -28 -6 -24 -10 5 -5 7 -21 4 -36 -5 -36 -45 -57 -76 -40 -11 7 -25 13 -31
14 -27 3 -29 5 -17 12 10 7 8 13 -6 30 -11 12 -21 19 -24 16 -8 -7 -78 28 -72
37 8 13 -46 60 -77 66 -33 6 -40 37 -11 51 28 14 68 1 93 -30 21 -27 126 -32
132 -6 3 9 0 21 -6 27 -7 7 -7 14 1 24 9 10 8 18 -3 33 -8 10 -15 26 -15 36 0
23 -41 11 -48 -14 -3 -12 -10 -17 -19 -14 -19 8 -53 -11 -53 -29 0 -8 -5 -15
-10 -15 -6 0 -9 6 -8 13 2 7 -7 12 -24 11 -15 -1 -27 2 -26 5 0 3 -3 16 -7 27
-5 16 -12 20 -28 16 -12 -3 -25 -10 -29 -16 -4 -6 -16 1 -29 18 -19 25 -27 27
-60 22 -42 -7 -55 4 -39 33 7 14 19 19 42 18 18 -1 33 3 34 8 0 6 6 22 14 37
12 25 11 30 -10 48 -14 13 -21 27 -17 39 6 25 -16 45 -51 46 -36 0 -42 30 -7
39 17 4 31 1 42 -9 9 -10 22 -13 32 -9 9 3 35 6 59 5 38 -2 42 0 42 23 0 34
-10 56 -25 56 -7 0 -30 16 -51 35 -21 19 -34 35 -29 35 5 0 0 7 -11 15 -10 8
-29 15 -40 15 -12 0 -27 7 -34 15 -7 8 -18 15 -24 15 -6 0 -19 7 -29 15 -18
13 -18 15 7 52 14 21 26 50 26 66 0 28 -1 29 -39 22 -49 -8 -88 9 -70 31 6 8
21 14 32 14 11 0 28 7 37 15 16 14 19 13 33 -17 l16 -33 9 25 c11 29 -3 57
-33 66 -11 4 -28 13 -37 21 -9 8 -21 12 -27 9 -6 -4 -19 -2 -29 3 -13 7 -23 6
-32 -2 -10 -10 -12 -8 -6 7 5 16 4 17 -9 6 -12 -10 -15 -10 -15 1 0 10 -2 11
-8 2 -5 -8 -13 -9 -22 -3 -8 6 -10 10 -4 10 6 0 11 6 12 13 4 49 14 79 35 102
14 15 32 36 41 47 9 10 21 16 26 13 6 -4 10 -2 10 3 0 15 33 10 53 -9 18 -17
20 -17 40 2 11 10 24 19 29 19 4 0 8 7 8 15 0 9 11 20 24 26 14 7 29 27 36 50
12 36 12 41 -6 54 -10 8 -27 15 -37 15 -11 0 -27 10 -36 22 -22 26 -31 21 -71
-38 -28 -42 -30 -48 -15 -63 17 -19 20 -41 6 -41 -19 0 -41 13 -41 24 0 6 -9
28 -20 49 -24 44 -25 67 -4 67 20 0 39 20 49 49 6 20 4 22 -13 17 -11 -4 -23
-2 -27 4 -3 5 -17 7 -29 4 -19 -4 -26 0 -37 25 -16 36 -45 41 -76 12 -12 -11
-23 -18 -26 -15 -2 3 -7 -4 -9 -14 -4 -15 -1 -18 20 -14 21 4 24 2 18 -13 -3
-10 -1 -25 6 -34 12 -14 11 -15 -5 -1 -17 12 -20 12 -29 -4 -9 -16 -11 -16
-28 4 -11 13 -21 17 -25 10 -3 -5 -1 -10 4 -10 18 0 12 -29 -8 -40 -29 -15
-31 -13 -29 25 1 19 5 32 9 29 10 -6 22 33 14 46 -3 5 1 10 9 10 9 0 16 4 16
9 0 12 -27 24 -65 29 -16 3 -15 93 1 109 12 12 12 17 -1 29 -20 21 -19 31 5
39 32 10 27 71 -7 101 -18 15 -31 20 -37 14 -25 -25 -79 13 -69 49 3 13 1 21
-7 21 -7 0 -10 7 -6 15 3 8 1 15 -4 15 -12 0 -2 66 15 101 9 17 11 29 5 29 -5
0 -9 3 -8 8 2 4 -10 24 -25 44 -16 20 -26 42 -22 48 10 16 -21 12 -35 -5 -7
-8 -9 -15 -6 -15 4 0 1 -10 -6 -22 -7 -13 -11 -26 -10 -30 1 -5 -2 -7 -7 -5
-5 1 -9 0 -9 -3 0 -3 -5 -18 -11 -33 -9 -24 -8 -31 13 -52 13 -13 21 -26 18
-29 -3 -3 0 -6 7 -6 19 0 9 -43 -16 -62 -23 -20 -43 -23 -43 -9 0 19 -36 3
-47 -21 -7 -14 -24 -33 -38 -42 -25 -16 -25 -16 -31 13 -4 19 -11 28 -18 24
-6 -3 -7 -2 -3 3 5 5 12 9 15 9 21 2 62 16 62 23 -1 18 -30 44 -45 39 -8 -4
-15 -3 -15 1 0 4 -11 15 -24 24 -22 16 -24 15 -41 -4 -15 -18 -15 -20 -2 -15
30 11 62 -44 40 -67 -10 -10 -13 -37 -2 -31 10 7 23 -40 15 -53 -7 -12 14 -29
37 -29 9 0 15 2 13 5 -2 2 0 17 6 34 8 22 15 28 29 25 10 -3 20 0 23 7 3 6 2
-2 -1 -19 -4 -16 -6 -35 -6 -42 0 -7 -8 -13 -17 -13 -12 0 -16 -9 -16 -34 1
-19 5 -32 9 -29 5 3 7 -3 6 -13 -2 -11 0 -25 4 -31 11 -18 2 -16 -17 3 -9 8
-16 11 -16 6 0 -8 -25 -9 -50 -3 -4 0 -4 17 -2 36 6 47 -5 85 -23 85 -8 0 -15
4 -15 8 0 5 -7 9 -15 9 -11 0 -12 -4 -4 -13 7 -8 7 -14 -1 -19 -6 -4 -9 -14
-5 -23 4 -11 -2 -9 -19 7 -24 22 -25 48 -3 62 5 4 1 19 -9 34 -10 16 -19 38
-20 49 -1 25 -52 105 -68 108 -33 4 -43 4 -63 -4 -27 -9 -50 21 -31 40 9 9 9
12 -1 12 -7 0 -10 4 -6 9 3 5 -2 16 -10 24 -8 9 -15 22 -15 30 0 19 -29 30
-45 17 -8 -6 -16 -6 -25 3 -10 9 -11 9 -6 0 5 -9 0 -13 -12 -13 -11 0 -22 7
-26 15 -3 8 -13 15 -23 15 -15 0 -14 4 7 20 14 11 33 20 43 20 23 0 22 12 -3
28 -12 7 -18 17 -14 23 4 8 9 7 15 -2 6 -10 9 -10 9 -2 0 6 9 10 20 8 18 -3
22 1 19 21 0 4 5 10 12 15 10 6 8 13 -5 34 -20 30 -15 45 9 25 8 -7 15 -9 15
-5 0 4 7 2 15 -5 8 -7 12 -17 8 -23 -3 -5 -1 -7 5 -4 5 4 17 4 26 1 14 -5 14
-8 1 -27 -23 -33 -18 -47 15 -47 32 0 49 -19 71 -83 14 -38 60 -80 67 -59 2 6
11 8 19 5 13 -5 15 -2 10 11 -6 15 -3 17 23 11 20 -4 30 -3 30 5 0 7 8 9 20 5
15 -5 21 0 26 22 4 15 7 36 6 46 0 9 3 17 8 17 4 0 11 12 15 28 3 15 18 37 33
49 26 21 26 22 8 36 -18 13 -18 14 0 15 26 1 74 -18 74 -30 0 -5 4 -7 9 -3 5
3 13 1 16 -5 4 -6 15 -8 24 -5 29 9 45 -3 71 -50 23 -43 42 -55 87 -55 12 0
33 -11 47 -25 16 -16 36 -25 56 -25 26 0 30 4 30 26 0 15 -9 34 -20 44 -19 17
-25 36 -22 73 3 28 41 21 54 -10 7 -16 13 -30 14 -32 5 -6 104 21 104 28 0 4
-9 17 -21 29 -11 12 -17 27 -14 32 3 6 2 10 -4 10 -6 0 -13 16 -17 35 -6 36
-17 48 -44 52 -8 1 -24 13 -35 27 -25 31 -32 32 -60 6 -29 -27 -79 -15 -83 21
-6 57 -13 71 -29 65 -8 -4 -22 -1 -29 5 -7 6 -17 8 -23 5 -5 -3 -12 8 -16 24
-6 26 -1 37 29 71 20 22 34 44 31 49 -4 6 -1 10 6 10 9 0 9 3 0 14 -6 7 -9 21
-5 29 3 9 -2 29 -12 45 -12 22 -15 37 -8 58 9 34 11 43 13 66 1 10 7 15 15 12
15 -6 46 21 46 39 0 16 65 67 84 67 8 0 17 4 21 9 3 5 20 7 38 5 28 -5 39 1
91 49 50 47 59 61 61 93 3 41 -12 65 -34 56 -20 -8 -41 26 -41 67 0 25 8 43
25 60 15 14 26 36 27 55 1 17 2 49 3 72 1 22 5 46 8 51 8 13 -1 43 -13 43 -4
0 -13 -13 -19 -28 -12 -27 -65 -62 -96 -62 -8 0 -20 -8 -27 -18 -7 -10 -28
-24 -45 -31 -18 -7 -33 -20 -33 -27 0 -14 -19 -19 -50 -15 -52 6 -68 6 -67 2
2 -7 -8 -11 -24 -11 -5 0 -7 5 -4 10 3 6 -1 10 -10 10 -8 0 -20 11 -27 25 -9
20 -14 22 -30 14 -11 -6 -35 -8 -55 -6 -24 4 -47 -1 -70 -14 -33 -19 -34 -19
-23 0 5 11 9 37 8 58 -1 40 16 82 51 122 23 26 26 58 11 110 -6 22 -6 39 0 46
14 17 17 77 4 82 -9 3 -45 -21 -99 -65 -6 -5 -16 -7 -23 -4 -6 2 -12 -2 -12
-8 0 -7 -8 -10 -20 -7 -15 4 -22 -2 -30 -29 -10 -31 -20 -39 -42 -35 -5 0 -8
-3 -8 -9 0 -5 -7 -6 -17 -3 -11 4 -14 3 -9 -5 4 -7 2 -12 -3 -12 -6 0 -11 -6
-11 -14 0 -20 -40 -32 -51 -15 -9 15 4 42 29 61 18 13 23 39 10 49 -5 3 -9 17
-10 32 -1 15 -3 27 -5 27 -15 0 -51 -26 -47 -34 3 -6 -4 0 -15 14 -11 14 -21
28 -21 31 0 4 -9 9 -20 12 -10 3 -22 17 -26 31 -5 21 0 32 27 57 26 25 30 32
18 40 -9 6 -10 9 -2 9 7 0 10 7 7 15 -5 11 1 15 20 15 24 0 30 -8 27 -35 0 -5
13 -11 29 -12 29 -2 30 -1 14 15 -10 9 -20 16 -23 15 -6 -2 -40 56 -41 70 -1
27 71 -24 96 -68 13 -23 34 -12 34 17 l0 21 19 -21 c18 -22 61 -30 61 -13 0
11 40 8 61 -4 8 -5 11 -4 6 0 -4 5 0 17 10 27 9 10 14 18 12 19 -59 11 -86 27
-99 58 -7 17 -16 31 -21 31 -5 0 -9 9 -9 20 0 12 7 20 16 20 9 0 30 12 47 26
18 15 33 22 35 15 8 -23 32 -9 53 30 11 23 16 38 10 34 -6 -3 -11 -3 -11 2 0
4 -13 8 -29 8 -16 0 -27 -3 -24 -7 6 -11 -15 -10 -38 2 -15 9 -19 7 -19 -5 0
-10 5 -13 12 -9 7 5 8 3 3 -5 -5 -9 -11 -9 -17 -3 -7 7 -19 7 -37 0 -39 -15
-62 -18 -56 -7 4 5 1 9 -5 9 -7 0 -8 6 0 19 5 11 10 30 10 42 0 16 5 20 19 16
25 -6 54 28 45 55 -3 12 -2 18 3 15 6 -4 11 14 12 39 l1 46 -35 -3 c-22 -2
-42 3 -55 14 -33 28 -25 40 21 33 25 -4 38 -3 35 3 -4 6 5 8 21 7 16 -2 28 -5
28 -6 0 -1 8 -3 17 -5 11 -2 15 2 11 11 -4 10 0 12 11 8 19 -7 39 35 24 53 -6
7 -4 13 4 16 7 3 4 6 -8 6 -11 1 -29 -8 -38 -18 -21 -23 -56 -17 -56 10 0 10
10 24 23 30 49 26 74 102 37 112 -25 6 -25 22 -1 46 18 18 18 23 6 65 -13 42
-12 50 6 48 4 -1 5 8 2 18 -7 26 -15 25 -43 -5 -13 -14 -23 -37 -23 -54 0 -18
-9 -35 -24 -46 -16 -12 -23 -28 -23 -49 0 -38 -17 -63 -45 -68 -11 -2 -23 -7
-27 -13 -4 -5 -10 -7 -13 -3 -7 6 -18 60 -19 90 0 12 -5 14 -16 8 -29 -16 -43
-40 -43 -76 0 -18 -5 -34 -11 -34 -6 0 -16 -11 -23 -25 -8 -19 -8 -23 0 -19 8
5 7 2 0 -7 -17 -17 -17 -32 0 -24 6 4 4 0 -6 -8 -9 -8 -22 -28 -28 -46 -11
-32 -39 -43 -39 -16 0 8 -4 15 -8 15 -5 0 -9 7 -9 14 0 8 5 14 10 13 5 -1 11
8 13 21 5 28 0 28 -39 -2 -41 -29 -65 -38 -73 -25 -10 16 16 67 37 72 26 7 24
17 -10 53 -30 32 -27 54 9 54 29 1 72 49 77 89 4 32 2 38 -13 38 -11 0 -23 -3
-29 -7 -5 -4 -19 -6 -30 -3 -11 2 -34 4 -52 5 -28 2 -33 6 -41 41 -6 21 -9 49
-6 61 3 16 -3 26 -21 36 -14 7 -25 19 -25 25 0 26 15 23 46 -10 17 -19 37 -35
43 -35 15 0 31 43 20 51 -5 3 0 15 11 27 11 11 20 25 20 29 0 4 11 21 25 37
14 16 25 38 25 48 0 13 4 17 13 12 9 -6 9 -4 -1 8 -8 10 -10 26 -6 42 4 17 -1
37 -15 62 -19 32 -21 84 -2 84 3 0 12 10 20 21 11 18 11 23 -1 30 -9 6 -7 9
10 9 12 0 22 5 22 11 0 6 9 9 20 6 11 -3 17 -1 14 5 -11 17 6 60 21 54 8 -3
28 8 45 25 30 31 40 61 18 57 -6 -2 -16 11 -21 28 -8 26 -5 35 14 56 49 52 78
93 68 96 -5 2 -9 9 -9 16 0 7 -9 23 -20 36 -11 13 -20 27 -20 32 0 4 -6 8 -14
8 -7 0 -19 7 -26 15 -10 12 -10 15 1 15 14 0 -15 23 -41 32 -13 5 -16 -2 -14
-33 2 -48 -15 -65 -47 -49 -19 11 -21 10 -16 -4 4 -10 1 -16 -8 -16 -8 0 -15
-4 -15 -10 0 -5 -7 -10 -16 -10 -18 0 -46 25 -37 34 4 3 -1 6 -10 6 -10 0 -17
5 -17 10 0 6 -12 16 -27 22 -16 7 -36 18 -45 26 -10 9 -18 11 -18 7 0 -4 -9 0
-20 10 -11 10 -20 13 -20 7 0 -7 -7 -12 -16 -12 -9 0 -12 -5 -8 -12 4 -7 3 -8
-5 -4 -6 4 -9 11 -6 16 3 5 1 11 -4 15 -5 3 -16 19 -24 35 -12 23 -13 31 -2
40 7 5 11 22 9 36 -3 30 -15 45 -21 27 -6 -18 -48 4 -61 32 -6 12 -24 38 -41
57 l-30 35 27 20 c40 29 60 34 66 17 3 -8 12 -14 19 -14 17 0 40 47 27 55 -5
3 -7 19 -3 35 6 32 -10 60 -34 60 -8 0 -25 11 -39 25 -25 25 -25 26 -7 55 9
17 20 30 23 30 3 0 14 -13 23 -30 10 -16 25 -30 33 -30 21 0 17 54 -6 75 -11
10 -20 24 -20 30 0 18 -47 47 -55 35 -8 -14 -42 -13 -51 2 -5 8 -2 9 11 4 15
-5 16 -4 6 8 -10 11 -8 17 7 28 10 7 18 21 16 31 -1 10 5 26 15 36 25 25 31
47 18 60 -6 6 -7 11 -2 11 5 0 -2 11 -14 24 -21 23 -25 24 -45 11 -13 -9 -51
-15 -93 -17 -56 -1 -74 -5 -84 -20 -16 -22 -38 -23 -65 -4 -18 14 -18 16 -1
45 11 19 14 32 7 36 -20 13 -9 22 30 23 21 1 58 8 81 16 29 10 49 12 66 5 30
-11 56 5 48 30 -7 23 10 45 29 38 20 -8 94 59 100 90 5 22 -23 40 -52 34 -7
-1 -22 5 -34 14 -13 8 -30 15 -40 15 -10 0 -18 5 -18 10 0 6 -5 10 -11 10 -22
0 -74 55 -71 74 3 13 0 16 -10 11 -7 -4 -4 2 7 14 16 17 28 20 53 15 17 -4 34
-14 37 -24 3 -10 12 -24 21 -31 12 -10 17 -8 28 7 12 16 12 22 -5 45 -10 15
-19 39 -19 53 0 26 0 26 30 11 27 -14 30 -14 38 2 25 49 33 120 14 128 -20 7
-29 -1 -35 -32 -11 -47 -23 -57 -79 -62 -5 -1 -8 -10 -8 -21 0 -14 -5 -18 -17
-13 -12 5 -13 8 -4 11 9 3 5 12 -12 31 -32 34 -51 97 -31 105 8 3 14 13 14 21
0 9 3 14 8 12 4 -3 7 10 7 28 0 18 -4 31 -9 27 -5 -3 -7 2 -3 11 3 10 5 16 4
16 -1 -1 -10 -3 -19 -6z m-38 -308 c0 -8 -7 -15 -15 -15 -13 0 -14 3 -3 15 16
18 18 18 18 0z m-10 -117 c0 -6 -6 -5 -15 2 -8 7 -15 14 -15 16 0 2 7 1 15 -2
8 -4 15 -11 15 -16z m-100 -515 c0 -17 -8 -16 -26 1 -8 8 -11 22 -7 32 6 16 7
16 20 -2 7 -10 13 -24 13 -31z m220 -377 c-11 -14 -50 -10 -50 5 0 4 10 15 22
23 20 14 23 14 31 0 5 -9 4 -20 -3 -28z m-226 -198 c1 -7 5 -19 9 -25 6 -9 3
-11 -7 -7 -17 7 -28 32 -20 46 7 11 15 5 18 -14z m482 -1279 c19 -21 19 -22
-2 -15 -20 6 -21 4 -16 -39 4 -40 2 -45 -12 -39 -11 4 -15 13 -11 22 3 9 3 13
-1 9 -10 -10 -35 29 -29 45 3 7 15 18 28 24 12 7 22 12 23 13 0 0 9 -9 20 -20z
m-148 -49 c2 -14 13 -32 23 -41 10 -9 19 -21 19 -27 0 -5 8 -13 17 -16 11 -5
13 -10 7 -14 -6 -4 -14 -20 -18 -36 -6 -26 -9 -28 -23 -14 -8 9 -16 37 -18 62
-1 34 -8 51 -23 61 -13 10 -18 22 -15 35 7 27 27 20 31 -10z m172 -69 c0 -6
-4 -13 -10 -16 -5 -3 -10 1 -10 9 0 9 5 16 10 16 6 0 10 -4 10 -9z m-405 -54
c1 -26 -1 -47 -2 -47 -4 0 -21 44 -29 76 -6 22 -4 25 12 22 15 -3 19 -12 19
-51z m880 3 c3 -5 2 -10 -4 -10 -5 0 -13 5 -16 10 -3 6 -2 10 4 10 5 0 13 -4
16 -10z m-898 -57 c4 -12 -35 -39 -44 -30 -3 3 -2 15 2 27 7 22 35 24 42 3z
m448 -41 c36 -27 50 -45 50 -62 0 -21 -5 -25 -33 -27 -18 -1 -40 -7 -48 -14
-23 -19 -54 -21 -55 -4 -1 8 -2 21 -3 28 -1 16 -19 36 -28 31 -4 -2 -9 0 -12
5 -3 5 1 11 9 15 8 3 17 1 20 -4 4 -6 12 -10 18 -10 7 0 5 5 -5 10 -16 10 -17
21 -3 53 11 26 35 21 90 -21z m-392 -39 c2 -10 -6 -29 -17 -42 -17 -20 -18
-23 -4 -18 23 8 14 -15 -13 -31 -12 -8 -18 -9 -14 -3 3 6 3 11 -2 11 -4 0 -9
11 -9 25 -1 16 3 25 12 25 8 0 14 6 13 13 -3 26 1 37 15 37 8 0 16 -8 19 -17z
m152 0 c8 -10 21 -27 30 -38 11 -15 17 -17 23 -8 5 9 13 5 26 -12 32 -42 48
-61 40 -46 -5 9 -3 12 4 7 19 -12 14 -20 -20 -35 -18 -8 -39 -23 -46 -32 -7
-11 -19 -16 -28 -12 -13 5 -15 1 -10 -15 16 -49 15 -60 -5 -55 -10 3 -19 10
-19 15 0 5 -8 8 -17 6 -28 -5 -27 35 2 70 l26 31 -29 17 c-35 20 -66 69 -58
90 5 13 38 32 59 33 4 1 14 -7 22 -16z m-243 -118 c-5 -31 -22 -23 -22 10 0
16 4 23 14 19 8 -3 11 -15 8 -29z m68 5 c0 -5 -5 -10 -11 -10 -5 0 -7 5 -4 10
3 6 8 10 11 10 2 0 4 -4 4 -10z m702 -20 c14 -16 15 -25 7 -50 -13 -36 -25
-37 -56 -8 -27 25 -29 41 -7 62 21 21 36 20 56 -4z m-704 -48 c2 -7 -3 -12
-10 -12 -8 0 -15 7 -15 15 0 18 19 15 25 -3z m56 9 c3 -5 -2 -15 -11 -22 -15
-12 -16 -12 -10 3 3 9 1 19 -6 22 -7 2 -5 5 5 5 9 1 19 -3 22 -8z m425 -83
c24 -18 25 -18 35 0 14 22 46 17 46 -8 0 -10 -7 -26 -16 -34 -8 -9 -12 -16 -7
-16 4 0 17 -13 27 -27 19 -26 19 -26 0 -20 -19 7 -19 7 0 -8 11 -8 15 -15 8
-15 -6 0 -9 -6 -6 -14 7 -19 -43 -31 -64 -14 -13 11 -14 11 -7 -1 6 -11 2 -10
-15 2 -27 19 -51 7 -43 -22 3 -14 -3 -20 -25 -24 -41 -8 -68 1 -69 23 -1 11
-11 29 -21 40 -24 26 -19 49 14 75 14 11 39 34 56 51 35 36 54 38 87 12z m-49
-268 c0 -6 10 -5 26 2 42 20 49 -8 12 -54 -30 -39 -47 -48 -49 -25 -1 6 -2 29
-4 50 -2 20 1 37 6 37 5 0 9 -4 9 -10z m-300 -38 c0 -4 -7 -17 -15 -30 -14
-20 -14 -21 0 -16 18 7 21 -16 4 -33 -15 -15 -59 4 -59 24 0 8 -4 12 -9 9 -5
-4 -7 3 -4 15 6 21 33 37 66 38 9 1 17 -2 17 -7z m-96 -167 c13 -18 14 -18 20
3 8 23 21 28 31 12 3 -6 -3 -21 -13 -35 -12 -15 -18 -34 -15 -46 4 -13 -1 -25
-13 -34 -18 -13 -18 -13 1 -12 13 1 21 -5 23 -18 2 -16 -3 -21 -23 -23 -15 -1
-24 2 -20 8 3 6 1 10 -5 10 -6 0 -9 3 -6 8 2 4 -20 7 -51 7 -30 -1 -57 3 -59
7 -3 5 -11 5 -17 1 -7 -4 -5 2 3 12 8 10 10 16 3 12 -6 -4 -14 -3 -17 2 -4 5
-2 12 3 15 5 4 8 14 6 24 -1 9 7 30 17 45 18 25 24 27 69 24 33 -3 54 -10 63
-22z m217 -146 c13 -25 -1 -40 -31 -32 -18 5 -33 37 -22 47 13 13 42 5 53 -15z
m-317 -44 c-4 -8 -7 -15 -9 -15 -2 0 -5 7 -9 15 -3 9 0 15 9 15 9 0 12 -6 9
-15z m326 -15 c0 -5 -2 -10 -4 -10 -3 0 -8 5 -11 10 -3 6 -1 10 4 10 6 0 11
-4 11 -10z m676 -112 c2 -18 -51 -52 -67 -42 -5 3 -9 0 -9 -7 0 -8 -5 -8 -16
2 -10 8 -12 15 -5 17 6 2 11 11 11 20 0 8 3 13 6 9 4 -3 13 1 21 9 20 19 55
14 59 -8z m-873 -46 c-6 -13 -25 -13 -24 1 1 4 1 17 1 29 0 21 0 21 14 3 8
-11 11 -25 9 -33z m455 -119 c10 -10 17 -24 16 -30 -1 -7 -2 -19 -3 -25 -1 -9
-4 -10 -9 -2 -11 16 -52 25 -46 9 6 -14 -26 -30 -35 -18 -3 5 -13 8 -21 8 -29
-2 -39 14 -28 46 9 27 14 29 59 29 34 0 55 -6 67 -17z m1027 -24 c8 -12 -24
-51 -36 -43 -5 3 -9 -1 -9 -10 0 -8 -6 -16 -12 -19 -17 -5 -76 25 -83 43 -3 8
-3 11 1 7 4 -4 15 0 25 9 16 15 21 15 49 0 26 -13 31 -13 27 -1 -8 20 27 33
38 14z m-1501 -91 c6 -34 5 -38 -14 -38 -20 0 -23 10 -22 70 0 43 2 45 16 25
7 -11 16 -37 20 -57z m1279 42 c3 -13 0 -20 -9 -20 -8 0 -14 9 -14 20 0 11 4
20 9 20 5 0 11 -9 14 -20z m-723 -26 c0 -7 -8 -10 -20 -7 -22 6 -19 20 5 20 8
0 15 -6 15 -13z m-296 -16 c7 -7 15 -21 19 -31 4 -11 16 -21 27 -24 11 -3 20
-10 20 -17 0 -6 5 -4 10 4 8 12 10 11 10 -6 0 -28 -19 -43 -62 -48 -26 -4 -38
0 -48 15 -17 22 -35 26 -27 4 5 -10 -4 -16 -31 -21 -20 -3 -43 -13 -49 -22 -9
-10 -13 -12 -13 -3 0 7 -4 10 -9 6 -5 -3 -13 5 -17 17 -12 35 -12 58 0 58 6 0
5 5 -2 12 -7 7 -12 20 -12 29 0 20 18 35 28 24 3 -3 0 -10 -8 -15 -12 -8 -10
-10 10 -11 14 -1 30 0 35 1 6 1 20 2 33 2 12 0 22 4 22 9 0 5 7 9 15 9 8 0 15
5 15 10 0 14 19 13 34 -2z m386 -58 c0 -5 -5 -10 -11 -10 -5 0 -7 5 -4 10 3 6
8 10 11 10 2 0 4 -4 4 -10z m-700 -70 c0 -5 -2 -10 -4 -10 -3 0 -8 5 -11 10
-3 6 -1 10 4 10 6 0 11 -4 11 -10z m446 -52 c16 -13 40 -33 53 -45 22 -20 23
-23 8 -29 -29 -11 -74 14 -80 45 -3 15 -16 32 -29 39 -22 10 -22 11 -2 11 12
1 34 -9 50 -21z m774 -22 c0 -3 -4 -8 -10 -11 -5 -3 -10 -1 -10 4 0 6 5 11 10
11 6 0 10 -2 10 -4z m-1085 -46 c5 -16 -1 -59 -10 -68 -3 -3 -10 -1 -16 5 -6
6 -18 9 -27 6 -12 -5 -14 -1 -10 20 3 15 1 24 -3 21 -13 -8 -11 10 2 23 15 15
58 11 64 -7z m950 -31 c0 -7 -8 -15 -17 -17 -18 -3 -25 18 -11 32 10 10 28 1
28 -15z m-587 -42 c2 -11 -8 -19 -34 -26 -52 -14 -61 -4 -23 25 36 26 52 27
57 1z m-98 -184 c0 -17 -8 -25 -32 -31 -52 -14 -56 15 -10 68 15 18 16 18 28
2 8 -9 14 -27 14 -39z m-477 -14 c-5 -5 -20 -5 -33 -2 l-25 7 25 6 c28 8 46 2
33 -11z m638 -42 c5 -31 24 -65 50 -87 3 -3 8 -13 12 -22 7 -20 -12 -25 -29
-8 -10 10 -54 -21 -54 -38 0 -4 -22 -21 -49 -37 l-49 -30 31 -18 31 -19 -32
-29 c-36 -32 -63 -37 -82 -14 -12 15 -11 50 3 47 4 -2 13 3 21 10 11 11 11 17
-3 37 -13 21 -13 24 -1 16 12 -7 13 -6 3 6 -7 9 -9 20 -3 29 6 9 5 17 -2 21
-6 4 -8 18 -4 34 6 24 11 27 42 23 45 -5 68 19 67 70 -1 44 4 54 25 50 11 -2
19 -17 23 -41z m-687 18 c3 -8 1 -15 -5 -15 -6 0 -8 -4 -5 -8 3 -5 -1 -9 -9
-9 -8 0 -15 8 -15 17 0 30 24 41 34 15z m1192 -10 c7 -6 9 -17 4 -24 -10 -18
17 -69 40 -76 21 -7 28 -35 9 -35 -7 0 -9 -12 -5 -35 4 -20 3 -35 -3 -35 -21
0 -41 13 -41 26 0 13 -15 18 -48 17 -7 -1 -11 1 -8 4 3 3 -2 20 -11 37 -10 17
-18 34 -19 39 -1 4 -3 8 -4 10 -1 1 -4 24 -5 50 l-2 48 41 -7 c22 -3 45 -12
52 -19z m69 -5 c3 -5 1 -10 -4 -10 -6 0 -11 5 -11 10 0 6 2 10 4 10 3 0 8 -4
11 -10z m-237 -48 c15 -10 7 -38 -13 -46 -15 -5 -30 27 -20 44 7 12 16 12 33
2z m-167 -28 c6 -8 9 -18 5 -21 -13 -13 -37 -11 -43 3 -3 8 -13 14 -22 14 -11
0 -12 3 -4 8 21 13 51 11 64 -4z m105 -68 c16 -17 4 -29 -20 -20 -17 7 -20 16
-9 27 9 10 13 9 29 -7z m134 -86 l23 -20 -25 0 c-30 0 -38 7 -31 26 7 18 6 18
33 -6z m-636 -129 c-4 -9 -8 -29 -9 -46 -5 -74 -3 -70 -25 -50 -25 23 -27 82
-2 105 21 21 46 14 36 -9z m506 3 c0 -9 -9 -27 -20 -41 -15 -20 -20 -22 -20
-9 0 10 -4 14 -10 11 -11 -7 -13 15 -4 39 8 21 54 21 54 0z m-5 -54 c3 -5 1
-10 -4 -10 -6 0 -11 5 -11 10 0 6 2 10 4 10 3 0 8 -4 11 -10z m-225 -110 c0
-5 -2 -10 -4 -10 -3 0 -8 5 -11 10 -3 6 -1 10 4 10 6 0 11 -4 11 -10z m510
-20 c0 -5 -2 -10 -4 -10 -3 0 -8 5 -11 10 -3 6 -1 10 4 10 6 0 11 -4 11 -10z
m20 -24 c0 -3 -4 -8 -10 -11 -5 -3 -10 -1 -10 4 0 6 5 11 10 11 6 0 10 -2 10
-4z m-610 -66 c0 -11 7 -23 16 -27 9 -3 13 -12 9 -21 -3 -9 4 -24 17 -36 20
-18 20 -21 5 -24 -25 -5 -21 -15 13 -34 18 -10 30 -25 30 -38 0 -11 5 -20 11
-20 6 0 4 -7 -4 -15 -9 -8 -17 -20 -20 -27 -3 -10 -12 -8 -37 6 -30 17 -33 17
-27 2 4 -10 3 -15 -3 -11 -6 3 -10 14 -11 23 0 11 -3 12 -6 5 -2 -7 -11 -13
-19 -13 -8 0 -14 -6 -14 -12 0 -10 -2 -10 -9 0 -4 8 -12 13 -17 13 -5 -1 -9
11 -9 27 0 23 6 29 42 42 48 16 59 33 39 61 -8 11 -12 28 -9 37 2 10 -5 28
-16 41 -22 25 -20 41 5 41 8 0 14 -9 14 -20z m230 -34 c0 -2 -3 -11 -6 -20 -9
-23 -24 -20 -24 4 0 11 7 20 15 20 8 0 15 -2 15 -4z m370 -66 c0 -5 -2 -10 -4
-10 -3 0 -8 5 -11 10 -3 6 -1 10 4 10 6 0 11 -4 11 -10z m-420 -65 c7 -8 10
-21 7 -30 -4 -8 -2 -17 2 -20 5 -2 11 -13 14 -24 4 -18 3 -18 -33 1 -37 20
-39 26 -24 76 5 16 19 15 34 -3z m335 -75 c-3 -5 -12 -7 -20 -3 -21 7 -19 13
6 13 11 0 18 -4 14 -10z m-181 -15 c-4 -8 -11 -15 -16 -15 -6 0 -5 6 2 15 7 8
14 15 16 15 2 0 1 -7 -2 -15z m-464 -29 c13 -15 20 -31 16 -41 -3 -9 -2 -14 3
-11 5 3 11 -1 15 -9 3 -9 0 -15 -9 -15 -8 0 -15 -5 -15 -11 0 -8 -4 -9 -13 0
-8 6 -17 7 -21 3 -5 -4 -7 0 -5 8 2 8 -5 29 -14 47 -9 18 -17 37 -17 43 0 19
36 10 60 -14z m441 -27 c62 -57 77 -64 98 -45 16 15 19 15 31 1 10 -12 9 -21
-4 -49 -9 -19 -13 -42 -10 -53 6 -16 5 -16 -9 2 l-16 20 -1 -20 c-2 -58 -10
-94 -28 -126 -17 -30 -18 -39 -7 -65 15 -36 9 -61 -16 -67 -12 -3 -25 3 -34
16 -9 12 -15 16 -15 8 0 -11 -3 -11 -15 -1 -8 7 -15 9 -15 6 0 -4 -9 -2 -20 4
-15 8 -17 15 -11 33 5 12 14 21 19 20 6 -2 20 11 32 27 12 17 17 30 11 30 -6
0 -11 6 -11 14 0 32 -31 24 -74 -20 -27 -28 -46 -41 -51 -35 -3 6 -9 10 -13 7
-4 -2 -14 11 -23 30 -9 18 -13 31 -9 29 5 -3 6 5 2 17 -3 12 -7 17 -10 10 -2
-7 -7 -10 -12 -7 -4 3 -7 -14 -5 -37 2 -23 0 -49 -5 -58 -5 -8 -10 -11 -10 -6
0 5 -11 -3 -24 -17 -24 -25 -26 -67 -4 -67 5 0 6 -5 2 -12 -5 -7 -7 -24 -6
-39 2 -23 -1 -26 -24 -23 -14 1 -27 4 -29 6 -4 4 -8 47 -6 73 1 17 3 18 11 5
8 -13 10 -13 10 2 0 23 -30 50 -49 45 -19 -5 -42 16 -39 35 2 7 -4 13 -12 13
-8 0 -15 -7 -15 -15 -1 -8 -6 -25 -13 -37 -9 -16 -9 -23 -2 -23 7 0 8 -5 3
-12 -4 -7 -8 -16 -9 -20 -1 -5 -2 -11 -3 -15 -1 -5 -8 4 -17 19 -19 36 -48 52
-66 35 -20 -19 -67 -21 -74 -3 -3 8 -12 12 -20 9 -8 -3 -14 0 -14 5 0 11 -20
10 -52 -3 -11 -4 -18 -3 -18 4 0 22 -30 10 -45 -19 -21 -41 -51 -56 -71 -36
-8 9 -12 21 -9 27 4 5 7 27 7 47 0 27 7 44 29 64 28 27 29 31 24 99 -5 63 -4
71 11 65 8 -3 19 -6 24 -6 4 0 10 -13 14 -30 4 -25 10 -30 34 -30 23 0 53 -14
82 -37 2 -2 -2 -8 -10 -13 -10 -7 -11 -10 -2 -10 6 0 12 -5 12 -11 0 -15 62
-79 77 -79 7 0 13 -5 13 -11 0 -5 4 -7 10 -4 6 3 10 0 10 -7 0 -9 3 -9 10 2 5
8 10 11 10 5 0 -5 7 1 16 14 15 21 15 24 -5 42 -12 11 -21 23 -22 27 0 4 -3
16 -5 27 -3 11 -6 36 -7 55 -2 29 2 35 18 35 11 0 24 -10 31 -22 6 -13 14 -20
19 -15 4 4 6 0 2 -10 -6 -18 1 -30 14 -22 5 2 4 16 -2 31 -11 29 10 73 36 73
15 0 17 38 2 58 -7 9 -3 12 13 12 13 0 32 10 44 23 27 29 57 42 49 21 -6 -18
20 -50 48 -57 21 -6 36 8 20 18 -6 3 -3 14 7 25 17 20 38 28 27 10 -3 -5 0 -7
7 -5 8 3 22 -2 33 -11 11 -8 15 -13 9 -10 -14 7 -26 -32 -13 -40 5 -3 7 -10 3
-15 -3 -5 0 -16 6 -24 7 -8 10 -21 7 -29 -5 -12 -1 -13 16 -7 28 10 30 44 5
76 -17 22 -18 25 -1 59 9 20 24 36 33 36 9 0 37 -18 61 -41z m254 31 c3 -5 -1
-10 -9 -10 -9 0 -16 5 -16 10 0 6 4 10 9 10 6 0 13 -4 16 -10z m78 -31 c10 -9
32 -20 49 -23 21 -4 28 -10 25 -20 -3 -8 -1 -16 4 -18 6 -2 7 -11 3 -21 -3
-10 -13 -16 -20 -13 -17 6 -17 1 -3 -26 9 -16 8 -19 -3 -12 -9 6 -9 3 2 -11
14 -17 13 -18 -13 -13 -15 3 -30 1 -33 -3 -3 -5 -11 -9 -17 -9 -7 0 -4 5 6 11
24 14 22 23 -13 56 -16 15 -30 32 -30 37 0 4 -12 22 -27 40 -26 31 -26 31 -5
34 12 2 22 7 22 12 0 12 31 0 53 -21z m-1097 -67 c1 -7 0 -8 -2 -3 -3 6 -12 7
-20 4 -8 -3 -14 0 -14 7 0 15 33 9 36 -8z m188 -28 c4 -10 1 -14 -6 -12 -15 5
-23 28 -10 28 5 0 13 -7 16 -16z m828 -39 c3 -13 2 -24 -1 -23 -18 2 -31 -3
-31 -13 0 -5 5 -7 12 -3 7 4 8 3 4 -5 -4 -6 -12 -9 -17 -6 -5 4 -9 -6 -9 -20
0 -14 -4 -24 -9 -20 -5 3 -13 0 -17 -6 -4 -7 -3 -9 3 -6 7 4 12 -7 15 -29 4
-37 -8 -56 -23 -33 -7 11 -13 11 -39 -4 -28 -17 -35 -15 -31 6 1 5 -8 11 -19
14 -22 6 -26 18 -10 28 5 3 21 -5 35 -19 25 -25 29 -21 26 21 -1 11 2 24 8 27
6 4 8 12 6 19 -6 17 15 46 21 30 8 -18 33 -4 29 15 -1 9 1 27 6 39 10 28 35
21 41 -12z m4488 5 c0 -5 -5 -10 -11 -10 -5 0 -7 5 -4 10 3 6 8 10 11 10 2 0
4 -4 4 -10z m-121 -19 c13 -8 8 -31 -7 -31 -17 1 -34 19 -28 29 9 13 16 14 35
2z m192 -66 c5 4 19 -4 31 -16 13 -12 18 -19 11 -15 -6 3 -14 2 -18 -3 -3 -5
-14 -9 -25 -8 -10 1 -17 3 -15 5 2 3 0 12 -5 22 -5 10 -6 20 -2 24 3 4 8 2 10
-3 2 -6 8 -9 13 -6z m-361 -16 c0 -5 -4 -9 -10 -9 -5 0 -10 7 -10 16 0 8 5 12
10 9 6 -3 10 -10 10 -16z m-4044 -26 c-10 -10 -19 5 -10 18 6 11 8 11 12 0 2
-7 1 -15 -2 -18z m233 5 c12 -15 11 -18 -3 -18 -10 0 -16 8 -16 22 0 12 1 19
3 17 1 -2 9 -12 16 -21z m-209 -18 c0 -5 -7 -10 -16 -10 -8 0 -12 5 -9 10 3 6
10 10 16 10 5 0 9 -4 9 -10z m4268 -6 c6 -11 11 -13 16 -5 11 17 36 13 43 -6
3 -10 18 -28 32 -39 20 -17 25 -30 24 -62 -1 -29 4 -45 19 -58 12 -11 18 -13
14 -6 -4 7 -1 12 8 12 25 0 26 -15 3 -42 -18 -20 -27 -24 -45 -17 -13 5 -28 6
-34 3 -6 -4 -6 2 1 14 9 17 8 22 -10 27 -13 4 -27 1 -39 -10 -18 -16 -21 -17
-45 -1 -14 9 -25 20 -25 24 1 16 19 34 29 28 8 -5 8 0 2 17 -10 25 -6 37 12
37 6 0 8 -3 4 -6 -10 -10 20 -34 36 -28 22 8 19 53 -3 49 -26 -5 -34 24 -13
49 l18 21 -23 -19 c-16 -14 -25 -17 -33 -9 -6 6 -18 9 -25 6 -9 -3 -14 1 -14
12 0 9 5 13 10 10 6 -3 10 -1 10 4 0 17 18 13 28 -5z m-4768 -4 c0 -5 -4 -10
-10 -10 -5 0 -10 5 -10 10 0 6 5 10 10 10 6 0 10 -4 10 -10z m562 -49 c-5 -14
-3 -14 11 -2 10 8 17 9 17 3 0 -6 -5 -14 -11 -17 -7 -5 -5 -13 5 -24 16 -17
13 -18 -47 -12 -5 1 -6 5 -3 10 4 5 1 11 -4 13 -15 5 -20 40 -8 55 14 17 48
-5 40 -26z m436 21 c6 -18 -15 -14 -22 4 -4 10 -1 14 6 12 6 -2 14 -10 16 -16z
m-1104 2 c13 -5 14 -9 5 -20 -9 -11 -8 -14 2 -14 10 0 10 -3 1 -12 -7 -7 -12
-20 -12 -31 0 -35 -25 5 -27 46 -3 37 2 42 31 31z m353 -31 c-4 -3 -2 -12 4
-20 9 -9 8 -13 0 -13 -6 0 -11 2 -11 4 0 2 -3 11 -6 20 -4 10 -1 16 7 16 7 0
9 -3 6 -7z m397 -55 c-3 -4 -1 -8 4 -8 5 0 12 -9 15 -20 3 -11 1 -18 -3 -15
-5 3 -11 -1 -14 -7 -5 -10 -7 -10 -12 0 -11 22 -32 12 -39 -19 l-7 -31 -24 23
c-27 25 -32 59 -8 59 9 0 12 5 8 12 -5 7 -1 9 13 6 12 -3 26 -2 32 2 16 9 41
9 35 -2z m-463 -21 c-10 -9 -11 -8 -5 6 3 10 9 15 12 12 3 -3 0 -11 -7 -18z
m563 8 c3 -8 1 -15 -3 -15 -5 0 -11 7 -15 15 -3 8 -1 15 3 15 5 0 11 -7 15
-15z m-584 -69 c0 -3 -4 -8 -10 -11 -5 -3 -10 -1 -10 4 0 6 5 11 10 11 6 0 10
-2 10 -4z m-292 -70 c17 -9 32 -14 32 -11 0 4 5 3 10 0 8 -5 7 -11 -1 -21 -6
-8 -8 -14 -5 -14 4 0 0 -7 -8 -16 -9 -8 -20 -12 -26 -9 -5 3 -10 0 -10 -8 0
-8 -14 -20 -32 -26 -36 -13 -46 -8 -29 13 9 10 11 37 8 81 -5 63 -5 65 11 47
9 -10 32 -27 50 -36z m4982 30 c0 -3 -4 -8 -10 -11 -5 -3 -10 -1 -10 4 0 6 5
11 10 11 6 0 10 -2 10 -4z m-5205 -56 c11 -17 -5 -32 -21 -19 -7 6 -11 15 -8
20 7 12 21 11 29 -1z m3795 0 c8 -5 11 -10 5 -10 -5 0 -17 5 -25 10 -8 5 -10
10 -5 10 6 0 17 -5 25 -10z m-65 -9 c3 -5 0 -13 -6 -17 -7 -4 -9 -3 -5 4 3 5
0 13 -6 15 -9 4 -10 6 -1 6 6 1 14 -3 18 -8z m165 -41 c0 -5 -2 -10 -4 -10 -3
0 -8 5 -11 10 -3 6 -1 10 4 10 6 0 11 -4 11 -10z m-3828 -53 c3 -17 -2 -26
-18 -34 -34 -16 -48 12 -21 42 18 21 34 18 39 -8z m-128 -35 c2 -4 -4 -13 -14
-20 -22 -14 -44 6 -34 32 5 12 10 13 24 6 11 -6 21 -14 24 -18z m6369 -17 c19
-27 8 -35 -13 -10 -7 8 -20 15 -29 15 -14 0 -14 2 -1 10 21 13 23 13 43 -15z
m-5146 -157 c-3 -8 -6 -5 -6 6 -1 11 2 17 5 13 3 -3 4 -12 1 -19z m4552 -54
c21 -27 26 -89 6 -76 -15 10 -36 11 -30 2 7 -11 -19 -20 -43 -14 -26 7 -21 54
10 87 30 32 33 32 57 1z m-5906 -10 c-4 -10 -9 -12 -15 -6 -12 12 -1 35 12 27
5 -3 6 -13 3 -21z m6215 -16 c16 -16 15 -25 -4 -32 -22 -8 -47 17 -31 33 14
14 20 14 35 -1z m-1081 -61 c-5 -16 -31 -16 -47 1 -12 14 -11 15 8 10 12 -4
22 -2 22 4 0 5 5 6 11 3 5 -4 8 -12 6 -18z m-227 -77 c0 -5 -4 -10 -10 -10 -5
0 -10 5 -10 10 0 6 5 10 10 10 6 0 10 -4 10 -10z m102 -54 c10 -15 0 -26 -27
-26 -25 0 -38 21 -29 45 5 12 10 12 27 3 12 -6 25 -16 29 -22z m1285 -14 c0
-9 -9 -26 -19 -37 -19 -20 -19 -20 -9 8 6 16 7 27 1 27 -5 0 -7 6 -4 14 7 19
31 10 31 -12z m-4978 -1 c13 -8 13 -14 1 -38 -13 -27 -16 -33 -19 -50 -4 -18
-31 33 -31 57 0 40 18 50 49 31z m4569 -31 c13 0 20 -4 17 -10 -3 -5 -2 -10 4
-10 5 0 11 5 13 12 3 7 7 6 11 -5 4 -11 1 -17 -8 -17 -10 0 -15 -11 -15 -34 0
-55 -23 -51 -54 10 -26 51 -28 90 -3 65 6 -6 22 -11 35 -11z m-938 -29 c0 -12
-20 -25 -27 -18 -7 7 6 27 18 27 5 0 9 -4 9 -9z m-818 -19 l37 -18 -34 -27
c-19 -15 -43 -27 -53 -27 -42 0 -50 48 -13 77 20 16 19 16 63 -5z m1838 -82
c0 -5 -2 -10 -4 -10 -3 0 -8 5 -11 10 -3 6 -1 10 4 10 6 0 11 -4 11 -10z
m-4610 -54 c0 -11 -19 -15 -25 -6 -3 5 1 10 9 10 9 0 16 -2 16 -4z m3430 -17
c0 -5 5 -7 10 -4 6 4 10 -7 10 -24 0 -19 -5 -31 -13 -31 -13 0 -39 55 -29 64
9 10 22 7 22 -5z m-863 -27 c0 -20 -6 -28 -19 -29 -10 -1 -18 1 -18 5 0 4 -3
17 -6 30 -5 18 -2 22 18 22 20 0 25 -5 25 -28z m-57 -23 c0 -5 -9 -9 -20 -9
-19 0 -26 11 -14 23 8 8 34 -3 34 -14z m-140 -25 c0 -20 -18 -17 -29 5 -9 16
-8 18 9 14 11 -3 20 -12 20 -19z m-57 1 c-3 -9 -8 -14 -10 -11 -3 3 -2 9 2 15
9 16 15 13 8 -4z m131 6 c3 -5 -1 -14 -8 -20 -16 -13 -32 2 -21 19 8 12 22 13
29 1z m896 -37 c0 -8 6 -14 14 -14 18 0 30 -17 17 -25 -6 -3 -18 4 -29 15
l-19 21 -13 -30 c-10 -26 -15 -29 -31 -20 -11 5 -16 15 -13 21 4 6 3 8 -3 5
-6 -4 -18 4 -27 18 -13 20 -14 25 -3 25 8 0 17 -3 21 -7 14 -14 37 -11 49 7 8
14 15 16 24 8 7 -6 13 -17 13 -24z m-4587 -105 c-6 -23 -21 -25 -29 -5 -7 18
18 48 27 34 4 -6 4 -19 2 -29z m1617 -8 c0 -8 -23 -21 -36 -21 -2 0 -4 11 -4
25 0 23 2 24 20 15 11 -6 20 -15 20 -19z m2037 -45 c19 -6 40 -52 29 -63 -2
-2 -19 -6 -38 -7 -22 -2 -32 -8 -30 -17 1 -8 -8 -2 -21 14 -12 15 -31 27 -40
27 -10 0 -15 5 -12 10 3 6 1 10 -4 10 -6 0 -11 6 -11 14 0 8 -7 22 -16 31 -15
15 -14 15 9 10 18 -5 31 -1 44 13 18 19 18 19 44 -8 14 -15 35 -31 46 -34z
m-2093 3 c-7 -13 -54 -11 -54 2 0 5 4 8 9 4 5 -3 12 -1 16 4 3 6 12 8 20 5 8
-4 12 -10 9 -15z m2696 -54 c0 -8 -7 -15 -15 -15 -9 0 -12 6 -9 15 4 8 10 15
15 15 5 0 9 -7 9 -15z m3915 -15 c8 -16 15 -35 14 -42 0 -10 -2 -10 -6 0 -2 6
-9 12 -14 12 -6 0 -7 -6 -3 -12 5 -9 4 -10 -4 -3 -10 10 -16 36 -13 63 2 19 9
14 26 -18z m355 20 c-9 -6 -11 -13 -5 -17 13 -10 18 -36 5 -28 -5 3 -18 1 -29
-5 -13 -7 -22 -7 -26 0 -4 6 -11 8 -16 5 -13 -9 -11 4 4 18 14 14 57 35 72 36
6 0 3 -4 -5 -9z m-4722 -17 c-2 -9 -9 -18 -17 -21 -8 -3 -11 0 -7 7 4 6 2 11
-4 11 -6 0 -8 5 -5 10 10 17 37 11 33 -7z m462 -74 c0 -5 -4 -9 -10 -9 -5 0
-10 7 -10 16 0 8 5 12 10 9 6 -3 10 -10 10 -16z m2400 -35 c0 -8 -5 -12 -10
-9 -6 4 -8 11 -5 16 9 14 15 11 15 -7z m-4760 -15 c0 -5 -6 -7 -12 -4 -7 4 2
-7 20 -24 18 -18 38 -29 44 -25 6 4 8 3 4 -4 -3 -6 1 -15 9 -20 12 -6 14 -16
9 -36 -5 -23 -11 -27 -30 -22 -13 4 -24 3 -23 -1 2 -16 -14 -53 -23 -53 -5 0
-6 -5 -3 -10 4 -6 11 -8 16 -5 5 3 6 -1 3 -9 -8 -21 -21 -20 -41 4 -21 24 -65
26 -87 5 -8 -8 -19 -15 -24 -15 -6 0 -13 -6 -16 -12 -3 -10 -8 -8 -16 4 -9 14
-16 15 -38 7 -14 -6 -30 -15 -33 -21 -10 -16 -67 -12 -85 6 -8 9 -12 16 -8 16
3 0 1 7 -6 15 -10 13 -10 19 2 33 10 11 14 34 13 64 -1 30 3 52 11 59 11 9 14
8 14 -4 0 -9 7 -23 16 -31 8 -9 12 -16 7 -16 -4 0 -2 -4 6 -9 9 -6 23 -5 38 2
21 9 22 12 9 32 -19 28 -17 65 4 66 8 1 26 3 40 4 31 3 52 -4 44 -16 -10 -17
51 -8 76 11 27 21 60 26 60 9z m2054 -62 c-3 -9 -10 -17 -15 -17 -4 0 -6 -7
-3 -15 8 -19 -19 -20 -35 -1 -13 16 0 61 21 69 19 7 40 -17 32 -36z m-4287 8
c8 -22 -6 -33 -17 -15 -13 20 -12 30 0 30 6 0 13 -7 17 -15z m448 -25 c-9 -15
-22 -12 -29 7 -9 21 16 37 27 17 4 -8 5 -19 2 -24z m5115 1 c0 -5 -7 -11 -15
-15 -15 -5 -20 5 -8 17 9 10 23 9 23 -2z m100 -5 c-7 -7 -14 -6 -21 1 -9 9 -7
12 9 10 14 -1 18 -5 12 -11z m-5320 -26 c0 -5 -4 -10 -10 -10 -5 0 -10 5 -10
10 0 6 5 10 10 10 6 0 10 -4 10 -10z m7455 -10 c-3 -5 -12 -10 -18 -10 -7 0
-6 4 3 10 19 12 23 12 15 0z m-3850 -20 c3 -5 1 -10 -4 -10 -6 0 -11 5 -11 10
0 6 2 10 4 10 3 0 8 -4 11 -10z m3908 -28 c12 -11 17 -26 15 -44 -4 -22 -1
-28 14 -28 21 0 23 -13 4 -29 -14 -12 -46 -5 -46 9 0 5 -10 6 -22 3 -19 -4
-20 -3 -8 6 12 9 9 10 -12 5 -35 -8 -44 21 -24 71 13 31 19 35 38 30 13 -4 31
-15 41 -23z m-3828 7 c4 -6 5 -12 2 -15 -7 -7 -37 7 -37 17 0 13 27 11 35 -2z
m365 -15 c0 -9 9 -27 20 -41 11 -14 20 -22 20 -18 0 5 2 6 5 3 3 -3 1 -17 -4
-31 -11 -28 -35 -28 -45 -1 -4 10 -2 13 7 8 8 -5 8 -2 -2 9 -7 9 -17 14 -22
11 -5 -3 -9 1 -9 8 0 10 -2 10 -9 0 -6 -10 -10 -6 -14 15 -3 15 -1 34 5 41 15
17 48 15 48 -4z m-2010 -4 c0 -5 -5 -10 -11 -10 -5 0 -7 5 -4 10 3 6 8 10 11
10 2 0 4 -4 4 -10z m5280 -10 c0 -5 -7 -7 -15 -4 -8 4 -12 10 -9 15 6 11 24 2
24 -11z m-1125 -21 c-8 -12 -35 -12 -35 0 0 11 22 20 33 14 4 -2 5 -9 2 -14z
m-4215 -26 c0 -8 5 -11 10 -8 6 4 10 -6 10 -23 0 -21 6 -31 20 -35 13 -3 18
-10 14 -21 -7 -19 -30 -21 -38 -3 -5 10 -7 10 -12 0 -7 -15 -34 -17 -34 -3 0
6 -9 10 -19 10 -28 0 -35 17 -17 36 9 9 13 20 10 26 -4 7 -2 8 4 4 7 -4 14 3
18 18 6 26 34 26 34 -1z m114 11 c8 -22 8 -26 -4 -19 -5 3 -7 0 -4 -9 4 -10
-2 -16 -18 -18 -14 -2 -22 -9 -20 -18 3 -12 1 -13 -9 -2 -10 9 -10 15 -1 24 7
7 12 20 12 31 0 10 5 15 10 12 6 -3 10 -1 10 4 0 17 17 13 24 -5z m2052 2 c20
-21 17 -36 -7 -36 -11 0 -17 5 -14 10 3 6 1 10 -4 10 -6 0 -11 7 -11 15 0 19
17 19 36 1z m-4196 -42 c0 -24 -17 -15 -22 11 -4 20 -3 23 8 14 8 -6 14 -18
14 -25z m7450 21 c0 -1 -6 -8 -14 -14 -11 -9 -15 -7 -19 8 -3 14 0 17 14 14
11 -3 19 -7 19 -8z m-5603 -1 c37 -10 16 -33 -28 -31 -54 2 -53 25 1 36 3 0
15 -2 27 -5z m73 -14 c0 -11 -7 -20 -15 -20 -8 0 -15 9 -15 20 0 11 7 20 15
20 8 0 15 -9 15 -20z m1751 -10 c23 0 25 -16 5 -36 -18 -18 -21 -18 -40 2 -13
12 -14 20 -4 37 7 14 13 17 16 9 2 -6 12 -12 23 -12z m4689 -20 c0 -21 -15
-27 -25 -10 -7 12 2 30 16 30 5 0 9 -9 9 -20z m-6200 3 c-1 -18 -19 -35 -29
-28 -9 5 -9 10 0 21 12 15 29 19 29 7z m4484 -19 c7 -20 -10 -54 -28 -54 -17
0 -36 22 -41 49 -3 18 1 21 30 21 21 0 35 -6 39 -16z m859 -39 c15 -14 27 -30
27 -36 0 -16 -27 -21 -50 -9 -15 8 -20 9 -16 1 4 -6 1 -14 -7 -17 -11 -4 -14
-18 -12 -51 l4 -46 -23 26 c-13 15 -28 27 -35 27 -6 0 -11 5 -11 11 0 5 -4 8
-9 5 -5 -4 -7 3 -4 14 3 11 9 23 14 26 5 3 9 10 9 15 0 6 -4 7 -10 4 -5 -3
-10 -1 -10 5 0 8 14 11 40 8 23 -2 39 1 39 7 -5 42 14 46 54 10z m-3393 -50
c0 -13 -29 -29 -37 -21 -3 3 -2 23 2 46 l7 42 14 -27 c8 -15 14 -33 14 -40z
m70 31 c0 -8 6 -17 13 -19 6 -3 3 -6 -8 -6 -17 -1 -18 -3 -5 -12 13 -9 13 -10
0 -6 -8 2 -15 8 -15 13 0 5 -3 14 -7 20 -8 12 -1 24 14 24 4 0 8 -6 8 -14z
m-4120 -6 c0 -5 -4 -10 -9 -10 -6 0 -13 5 -16 10 -3 6 1 10 9 10 9 0 16 -4 16
-10z m4940 -10 c0 -4 -9 -10 -20 -13 -22 -6 -23 -5 -14 17 6 14 34 12 34 -4z
m98 -16 c-3 -17 -4 -17 -21 1 -15 14 -16 20 -5 26 17 10 31 -4 26 -27z m96 7
c17 -7 17 -9 -7 -36 -22 -26 -27 -28 -50 -18 -30 14 -35 57 -6 48 10 -3 20 -1
24 5 7 11 12 12 39 1z m2174 -98 c-4 -33 -24 -41 -33 -12 -5 14 -2 25 6 30 23
15 30 10 27 -18z m1662 -7 c0 -3 -4 -8 -10 -11 -5 -3 -10 -1 -10 4 0 6 5 11
10 11 6 0 10 -2 10 -4z m-3746 -52 c8 -22 8 -44 -2 -44 -12 0 -33 40 -27 50 9
15 22 12 29 -6z m2316 1 c8 -1 22 -5 30 -8 8 -3 22 -7 31 -10 17 -6 33 -47 18
-47 -5 0 -9 4 -9 9 0 6 -11 4 -26 -3 -19 -11 -31 -11 -49 -2 -14 6 -25 14 -25
18 0 4 -8 4 -17 1 -16 -6 -17 -5 -3 12 15 19 14 19 -13 2 -31 -20 -57 -17 -53
7 3 24 14 30 30 17 11 -9 17 -9 28 3 7 8 20 13 28 9 8 -3 22 -7 30 -8z m-4385
-5 c3 -5 1 -10 -4 -10 -6 0 -11 5 -11 10 0 6 2 10 4 10 3 0 8 -4 11 -10z
m5825 -31 c0 -5 -4 -9 -10 -9 -5 0 -10 7 -10 16 0 8 5 12 10 9 6 -3 10 -10 10
-16z m40 17 c0 -2 -7 -17 -15 -32 -8 -16 -15 -38 -15 -48 0 -23 -13 -13 -17
12 -3 24 19 72 34 72 7 0 13 -2 13 -4z m-4440 -41 c0 -8 -4 -15 -10 -15 -5 0
-10 7 -10 15 0 8 5 15 10 15 6 0 10 -7 10 -15z m-2962 -61 c10 -7 11 -13 4
-18 -15 -9 -41 3 -53 26 -7 13 -7 18 -1 14 6 -3 14 -1 18 6 6 9 9 8 12 -2 3
-8 12 -20 20 -26z m906 30 c9 -3 16 -15 16 -25 0 -22 -1 -23 -35 -7 -27 12
-32 24 -12 31 6 3 13 6 14 6 1 1 8 -2 17 -5z m580 -68 c11 -4 23 -1 27 6 11
17 41 -12 59 -56 14 -38 46 -45 56 -14 3 10 11 18 17 18 7 0 6 4 -3 10 -12 8
-10 10 10 10 15 0 31 -5 37 -11 8 -8 14 -5 22 10 13 24 41 28 41 6 0 -8 9 -19
21 -25 11 -7 18 -14 15 -17 -9 -9 46 -34 62 -28 14 5 14 55 -1 66 -4 3 12 5
37 5 34 -1 42 -4 34 -13 -13 -16 24 -18 52 -3 15 8 21 6 29 -7 10 -17 12 -17
26 1 11 15 12 23 3 33 -16 20 -6 24 36 12 24 -7 36 -15 33 -23 -3 -8 -1 -18 5
-24 14 -14 -12 -41 -44 -47 -28 -6 -49 -32 -41 -52 4 -11 2 -14 -8 -11 -17 6
-36 -12 -41 -38 -2 -10 -12 -20 -23 -22 -20 -4 -20 -4 0 13 15 13 16 15 3 11
-9 -2 -19 2 -22 10 -9 24 -46 16 -76 -17 -19 -21 -34 -30 -45 -25 -13 5 -13 1
4 -22 21 -30 61 -67 47 -44 -4 7 -4 12 1 11 18 -3 36 1 30 8 -4 3 2 13 14 21
11 8 21 12 22 11 1 -2 9 -18 19 -34 15 -29 15 -31 -4 -54 -11 -15 -17 -33 -14
-45 3 -12 -3 -26 -16 -38 -24 -21 -63 -25 -52 -5 4 6 4 9 -1 5 -4 -4 -13 -2
-19 5 -6 7 -10 10 -9 8 2 -2 -2 -10 -7 -17 -8 -9 -6 -12 7 -10 10 0 19 -7 21
-19 5 -27 14 -35 47 -41 16 -3 42 -15 58 -26 17 -12 27 -17 23 -10 -5 8 0 12
13 12 27 0 38 -20 17 -32 -9 -5 -16 -16 -16 -24 0 -8 -4 -13 -9 -10 -5 3 -14
-15 -20 -40 -6 -24 -16 -42 -21 -39 -6 3 -10 1 -10 -4 0 -6 -8 -11 -17 -11
-15 0 -14 -2 3 -15 10 -8 15 -14 9 -14 -14 0 -54 23 -54 32 -1 10 -15 10 -18
0 -2 -4 11 -16 27 -25 31 -17 42 -42 15 -32 -8 4 -15 2 -15 -4 0 -9 -31 -23
-75 -34 -17 -5 -62 -53 -58 -61 3 -4 -6 -18 -20 -31 l-24 -22 -21 23 c-12 13
-19 30 -16 37 3 9 -1 13 -12 13 -12 -2 -20 8 -24 29 -7 31 -6 32 24 27 30 -5
31 -5 13 15 -22 24 -68 24 -96 0 -16 -14 -20 -13 -45 9 -15 12 -38 23 -51 23
-16 0 -30 11 -46 38 -13 20 -29 43 -36 50 -7 7 -13 18 -13 25 0 6 -6 3 -13 -7
-12 -17 -14 -16 -25 8 -6 14 -18 26 -27 26 -8 0 -15 5 -15 10 0 6 -6 10 -12
10 -7 0 -30 18 -50 39 -35 37 -35 39 -15 45 12 3 25 0 29 -7 6 -9 8 -8 8 2 0
11 3 12 11 4 6 -6 18 -9 25 -6 8 3 31 -1 52 -9 20 -8 57 -13 82 -12 39 3 69
-5 125 -34 6 -3 4 1 -2 9 -7 7 -13 24 -13 37 0 19 -4 23 -17 18 -10 -4 -14 -4
-10 0 4 4 -23 20 -61 36 -37 15 -72 35 -78 44 -7 8 -25 16 -40 17 -16 1 -38
10 -48 20 -24 21 -30 21 -48 4 -11 -12 -16 -12 -28 1 -8 9 -20 30 -26 46 -9
24 -16 30 -35 28 -13 -1 -38 -3 -56 -4 -17 -1 -29 -6 -27 -10 6 -10 1 -10 -20
-2 -9 3 -16 15 -16 25 0 11 -8 23 -17 26 -30 11 -70 48 -65 61 3 9 -3 10 -23
2 -15 -6 -31 -8 -36 -4 -5 3 -12 -2 -15 -10 -8 -21 -27 -20 -54 2 -19 16 -21
23 -13 61 9 48 10 48 99 54 28 2 56 7 62 11 6 3 13 2 17 -4 9 -15 22 -12 29 6
6 16 -9 54 -27 65 -5 4 -7 14 -4 23 7 18 42 22 52 6 4 -6 11 -8 16 -5 5 4 9 3
9 -2 1 -4 11 -21 25 -37 23 -28 24 -29 48 -13 24 15 27 15 52 -5 14 -11 24
-27 21 -34 -3 -8 -2 -14 3 -14 10 0 33 -53 29 -66 -4 -11 4 -14 32 -14 14 0
20 7 20 22 0 12 3 19 6 15 3 -3 18 5 32 18 22 21 24 26 12 40 -12 15 -12 19 5
31 13 9 14 14 5 14 -8 0 1 15 20 35 l35 36 30 -35 c16 -18 39 -37 49 -40z
m1404 29 c-6 -14 -17 -25 -25 -25 -7 0 -13 -5 -13 -10 0 -7 -6 -7 -19 0 -24
12 -34 13 -27 1 13 -20 -56 -40 -81 -24 -16 11 -21 49 -5 46 6 -2 11 2 10 8
-2 6 10 16 26 22 24 8 32 7 41 -6 7 -9 15 -14 18 -10 4 3 7 0 7 -8 0 -9 5 -7
12 6 7 11 11 22 9 24 -7 10 25 18 41 10 15 -8 16 -13 6 -34z m4595 0 c-5 -25
-7 -26 -13 -10 -4 11 -2 25 4 31 15 16 15 14 9 -21z m-1601 7 c-3 -10 -1 -13
6 -8 6 3 13 2 17 -4 3 -5 -1 -10 -9 -10 -8 0 -18 5 -21 10 -4 6 -10 8 -15 5
-5 -3 -12 0 -16 6 -4 8 -3 9 4 5 7 -4 12 -3 12 2 0 5 6 9 14 9 8 0 12 -6 8
-15z m73 -3 c-10 -15 -25 -10 -19 6 4 8 10 12 15 9 5 -3 7 -10 4 -15z m1383
-4 c-3 -3 -9 2 -12 12 -6 14 -5 15 5 6 7 -7 10 -15 7 -18z m-6821 -7 c-3 -8
-6 -5 -6 6 -1 11 2 17 5 13 3 -3 4 -12 1 -19z m4140 -25 c4 -10 11 -21 17 -25
8 -5 7 -11 -1 -19 -15 -15 -53 6 -53 30 0 33 26 43 37 14z m1076 6 c6 6 24 11
40 11 24 0 28 -3 24 -20 -3 -11 -2 -20 2 -20 9 0 11 -26 5 -57 -2 -12 -10 -20
-18 -19 -21 3 -47 27 -40 37 3 5 -1 9 -10 9 -8 0 -16 -6 -18 -12 -3 -9 -13 -7
-34 6 -17 12 -23 21 -16 24 7 2 10 8 6 13 -3 5 0 9 6 9 7 0 10 7 6 15 -5 13
-2 14 15 4 15 -8 24 -8 32 0z m1641 -30 c-3 -5 -10 -9 -16 -9 -6 0 -8 3 -5 6
3 4 1 16 -5 28 -11 21 -11 21 10 2 12 -10 19 -23 16 -27z m-6054 0 c0 -5 -5
-9 -12 -9 -6 0 -8 3 -5 7 4 3 1 13 -6 22 -11 14 -10 14 6 2 9 -7 17 -17 17
-22z m-758 -38 c-11 -7 -10 -9 3 -15 9 -3 14 -10 11 -15 -4 -5 0 -11 6 -14 7
-2 10 -8 6 -12 -3 -4 -15 -2 -25 4 -10 6 -14 11 -9 11 5 0 3 7 -4 15 -13 15
-6 35 13 35 8 0 8 -3 -1 -9z m1846 -39 c2 -6 -6 -10 -16 -9 -12 1 -18 6 -15
14 6 16 25 13 31 -5z m130 -1 c3 -10 0 -12 -12 -8 -9 4 -15 2 -13 -5 1 -6 -4
-13 -12 -16 -10 -3 -12 0 -8 12 4 10 7 22 7 28 0 14 33 5 38 -11z m3251 -44
c10 -15 20 -24 23 -21 12 11 40 -45 33 -63 -5 -12 -9 -14 -12 -5 -3 6 -10 12
-16 12 -7 -1 2 -12 18 -26 17 -15 23 -23 15 -19 -12 7 -13 5 -2 -6 18 -20 15
-31 -8 -24 -11 4 -20 2 -20 -4 0 -6 -6 -11 -12 -11 -9 0 -13 15 -12 47 1 33
-3 51 -14 59 -13 9 -14 15 -5 26 9 11 8 14 -6 14 -10 0 -17 -6 -14 -12 2 -7
-1 -15 -7 -19 -6 -4 -9 -1 -8 7 2 8 -5 12 -17 10 -16 -2 -17 -1 -5 7 8 6 15
16 16 23 3 32 5 36 20 34 8 -1 23 -14 33 -29z m-3389 13 c-20 -13 -33 -13 -25
0 3 6 14 10 23 10 15 0 15 -2 2 -10z m-41 -41 c-18 -11 -19 -8 -12 20 5 21 7
21 16 6 6 -12 5 -20 -4 -26z m179 22 c7 -1 10 -7 7 -13 -4 -7 0 -5 9 6 14 17
15 17 37 -3 12 -11 26 -18 31 -15 4 3 8 -2 8 -11 0 -9 -5 -13 -11 -9 -8 4 -9
-1 -4 -16 6 -19 4 -22 -10 -16 -15 5 -16 4 -6 -8 7 -8 8 -17 3 -20 -6 -3 -16
1 -23 10 -11 14 -11 18 1 28 20 15 21 43 3 51 -11 4 -13 1 -9 -11 4 -12 1 -14
-14 -9 -17 6 -19 2 -16 -26 4 -32 28 -59 53 -59 18 0 17 -55 -2 -70 -22 -18
-19 -32 15 -60 30 -25 38 -44 21 -54 -14 -9 -41 4 -41 20 0 7 -8 18 -19 23
-11 6 -18 21 -18 37 0 14 -5 29 -11 33 -15 9 -33 58 -37 101 -3 19 -6 49 -8
66 -4 25 -1 31 12 29 9 -2 22 -4 29 -4z m-2122 -10 c-3 -5 2 -11 12 -13 11 -3
18 -16 20 -36 2 -25 -1 -30 -13 -26 -23 9 -40 84 -19 84 3 0 3 -4 0 -9z m4979
-11 c-3 -5 -11 -10 -16 -10 -6 0 -7 5 -4 10 3 6 11 10 16 10 6 0 7 -4 4 -10z
m-4588 -16 c-3 -3 -12 -4 -19 -1 -8 3 -5 6 6 6 11 1 17 -2 13 -5z m1983 -20
c13 -34 13 -36 -9 -25 -10 6 -21 7 -25 4 -3 -3 -6 6 -6 20 0 35 27 36 40 1z
m2765 7 c3 -5 1 -12 -5 -16 -5 -3 -10 1 -10 9 0 18 6 21 15 7z m-2291 -20 c9
-7 13 -17 10 -22 -3 -5 0 -9 5 -9 6 0 11 -9 11 -21 0 -11 -4 -18 -8 -15 -5 3
-19 -19 -33 -49 -21 -48 -28 -55 -52 -55 -19 0 -26 4 -21 12 5 7 2 9 -9 5 -15
-6 -26 9 -34 46 -2 10 1 16 7 12 5 -3 10 1 10 9 0 8 -9 20 -20 26 -17 9 -18
14 -7 30 6 11 15 20 20 20 4 0 6 -4 2 -9 -3 -5 -1 -12 5 -16 5 -3 10 -1 10 4
0 6 11 11 24 11 15 0 26 7 29 19 5 22 26 22 51 2z m-838 -4 c8 3 14 -1 14 -11
0 -9 -7 -16 -15 -16 -8 0 -15 2 -15 4 0 2 -2 10 -3 18 -2 7 -2 10 0 6 2 -4 11
-4 19 -1z m3349 3 c3 -6 -1 -7 -9 -4 -18 7 -21 14 -7 14 6 0 13 -4 16 -10z
m1535 -25 c0 -8 -2 -15 -4 -15 -2 0 -6 7 -10 15 -3 8 -1 15 4 15 6 0 10 -7 10
-15z m-1826 -14 c4 -5 -3 -7 -14 -4 -23 6 -26 13 -6 13 8 0 17 -4 20 -9z
m-600 -16 c10 -7 15 -18 11 -24 -9 -15 -45 5 -45 24 0 19 10 18 34 0z m-2141
-2 c2 -5 8 -25 11 -47 6 -29 4 -37 -6 -34 -7 3 -13 18 -13 34 0 16 -4 35 -8
42 -5 7 -4 12 2 12 5 0 12 -3 14 -7z m3246 -74 c-16 -10 -23 -4 -14 10 3 6 11
8 17 5 6 -4 5 -9 -3 -15z m-3489 -14 c14 -17 4 -55 -16 -55 -9 0 -14 11 -14
35 0 37 10 44 30 20z m464 -3 c-6 -4 -10 -16 -8 -27 2 -11 -4 -25 -12 -32 -18
-13 -6 -46 21 -57 25 -9 17 -21 -16 -23 -17 -1 -37 -7 -44 -13 -17 -14 -45 -2
-45 20 0 9 11 30 24 45 14 16 23 32 20 37 -3 4 5 8 17 8 16 0 19 3 11 13 -12
14 -4 32 18 39 19 7 28 -1 14 -10z m170 -19 c-6 -20 -4 -25 7 -21 20 8 22 -27
3 -43 -8 -6 -14 -20 -14 -30 0 -21 -22 -38 -28 -20 -3 9 -8 9 -20 -1 -12 -10
-14 -10 -8 0 4 6 3 12 -1 12 -5 0 -10 13 -11 29 -2 23 3 31 27 41 17 7 32 22
35 36 4 13 9 24 11 24 3 0 2 -12 -1 -27z m-944 -27 c0 -17 -14 -29 -23 -20 -8
8 3 34 14 34 5 0 9 -6 9 -14z m1111 -14 c-6 -2 -11 -9 -11 -17 0 -19 -24 -35
-39 -25 -11 6 -9 14 9 39 18 27 24 30 37 19 10 -8 11 -14 4 -16z m-2153 -37
c0 -25 -23 -41 -34 -24 -3 6 -3 21 0 34 8 31 34 23 34 -10z m1622 31 c0 -2 3
-12 6 -20 4 -12 2 -15 -9 -10 -21 8 -30 34 -12 34 8 0 15 -2 15 -4z m547 -96
c12 -23 11 -26 -18 -38 -16 -7 -34 -10 -40 -7 -5 4 -9 -1 -9 -9 0 -9 -4 -16
-10 -16 -5 0 -7 -7 -4 -15 4 -8 1 -15 -5 -15 -6 0 -11 5 -11 10 0 6 -7 10 -15
10 -8 0 -15 5 -15 11 0 11 25 39 35 39 4 0 13 7 21 15 9 8 12 15 8 15 -3 0 -1
7 6 15 18 21 42 15 57 -15z m-827 11 c0 -5 -7 -12 -16 -15 -14 -5 -15 -4 -4 9
14 17 20 19 20 6z m-1600 -7 c0 -8 -19 -13 -24 -6 -3 5 1 9 9 9 8 0 15 -2 15
-3z m-42 -54 c-5 -17 -17 -31 -26 -32 -33 -2 -37 -4 -50 -12 -20 -12 -31 5
-21 32 8 22 9 22 41 6 29 -15 32 -15 20 -1 -12 14 -10 17 12 23 14 3 23 11 19
17 -3 6 -1 7 5 3 8 -4 8 -15 0 -36z m6649 8 c-3 -8 -6 -5 -6 6 -1 11 2 17 5
13 3 -3 4 -12 1 -19z m-1792 -8 c3 -5 1 -10 -4 -10 -6 0 -11 5 -11 10 0 6 2
10 4 10 3 0 8 -4 11 -10z m-4465 -20 c0 -5 -7 -7 -15 -4 -8 4 -15 8 -15 10 0
2 7 4 15 4 8 0 15 -4 15 -10z m6098 -2 c-3 -7 -13 -14 -24 -15 -10 -2 -13 0
-6 3 6 3 10 10 6 15 -3 5 2 9 11 9 9 0 15 -6 13 -12z m-4164 -6 c3 -5 -6 -19
-19 -30 -28 -25 -29 -24 -15 12 10 26 24 33 34 18z m-1986 -41 c11 -7 11 -9
-1 -14 -16 -6 -27 0 -27 15 0 10 11 10 28 -1z m887 -27 c19 -19 12 -69 -12
-94 -13 -13 -17 -12 -39 13 -13 16 -28 26 -33 22 -6 -3 -8 3 -6 14 3 15 0 18
-12 14 -11 -4 -14 -2 -11 8 3 8 11 13 17 12 6 -2 11 2 11 7 0 6 7 10 15 10 8
0 15 7 15 15 0 12 4 13 19 5 11 -5 27 -17 36 -26z m5240 16 c3 -5 1 -10 -4
-10 -6 0 -11 5 -11 10 0 6 2 10 4 10 3 0 8 -4 11 -10z m-4205 -35 c-14 -25
-30 -25 -30 1 0 8 5 12 10 9 6 -3 13 1 16 10 4 9 9 13 12 10 3 -3 -1 -16 -8
-30z m4200 -16 c0 -3 -7 -14 -16 -25 -14 -18 -15 -18 -4 4 6 13 7 22 1 22 -5
0 -13 -9 -16 -20 -3 -11 -11 -20 -16 -20 -6 0 -6 7 0 19 8 14 7 22 -4 31 -16
13 -21 35 -6 25 5 -3 13 0 17 6 5 8 13 4 25 -12 10 -13 19 -27 19 -30z m-50
-3 c0 -11 -19 -15 -25 -6 -3 5 1 10 9 10 9 0 16 -2 16 -4z m-1746 -40 c11 4
16 0 16 -14 0 -11 -6 -22 -13 -25 -18 -7 -51 15 -55 36 -3 15 0 17 17 8 11 -6
27 -8 35 -5z m1301 -8 c-19 -11 -30 -5 -21 11 4 6 14 7 22 4 15 -5 14 -7 -1
-15z m281 -22 l3 -28 -19 22 c-11 13 -17 27 -14 32 10 17 27 3 30 -26z m229
24 c3 -5 -1 -10 -10 -10 -9 0 -13 5 -10 10 3 6 8 10 10 10 2 0 7 -4 10 -10z
m-5865 -14 c0 -3 -4 -8 -10 -11 -5 -3 -10 -1 -10 4 0 6 5 11 10 11 6 0 10 -2
10 -4z m5849 -16 c-15 -10 -41 -1 -34 10 3 5 14 6 26 3 15 -4 17 -8 8 -13z
m-5419 -51 c0 -5 -9 -9 -20 -9 -11 0 -20 -5 -20 -11 0 -5 -4 -8 -9 -5 -5 3
-14 -1 -21 -9 -10 -12 -10 -15 0 -15 8 0 11 -3 7 -6 -3 -3 -13 -2 -22 3 -14 8
-12 13 14 40 21 22 36 30 50 26 12 -3 21 -9 21 -14z m-130 -19 c0 -22 -1 -23
-24 -14 -13 5 -14 9 -5 20 16 20 29 17 29 -6z m1100 -11 c0 -5 -7 -9 -15 -9
-15 0 -20 12 -9 23 8 8 24 -1 24 -14z m2500 -96 c0 -9 3 -13 7 -10 10 11 33
-13 33 -34 0 -30 -37 -24 -53 9 -15 28 -13 52 4 52 5 0 9 -7 9 -17z m153 -46
c-3 -5 -10 -4 -15 1 -6 6 -7 16 -3 22 6 9 9 9 16 -1 4 -7 5 -17 2 -22z m827
-46 c0 -4 -9 -7 -20 -8 -19 -2 -26 8 -14 20 7 7 34 -2 34 -12z m-1174 -67 c-5
-13 -10 -14 -18 -6 -6 6 -8 18 -4 28 5 13 10 14 18 6 6 -6 8 -18 4 -28z
m-3384 -271 c-9 -4 -10 -8 -2 -18 7 -8 7 -15 1 -19 -5 -4 -13 -2 -16 4 -9 15
2 40 17 39 10 0 10 -2 0 -6z m5246 -96 c2 -12 -1 -15 -12 -11 -19 7 -22 38 -3
32 6 -3 13 -12 15 -21z m-2188 -57 c0 -5 -2 -10 -4 -10 -3 0 -8 5 -11 10 -3 6
-1 10 4 10 6 0 11 -4 11 -10z m-3550 -110 c0 -5 -2 -10 -4 -10 -3 0 -8 5 -11
10 -3 6 -1 10 4 10 6 0 11 -4 11 -10z m5412 -273 c43 -14 100 -39 128 -57 112
-72 204 -206 247 -360 14 -52 18 -102 18 -255 0 -168 -3 -199 -23 -270 -65
-227 -199 -367 -403 -420 -85 -23 -270 -23 -363 -1 -208 49 -353 203 -418 441
-32 119 -32 375 1 495 66 246 212 394 438 444 101 23 275 15 375 -17z m-7967
-672 l0 -680 -187 -3 -188 -2 0 685 0 685 188 -2 187 -3 0 -680z m809 668 c3
-10 31 -175 62 -368 l58 -350 22 90 c12 50 52 215 89 368 l68 277 177 0 177 0
53 -217 c29 -120 69 -285 89 -368 l37 -150 60 365 60 365 177 3 c164 2 177 1
177 -15 0 -10 -18 -112 -40 -228 -23 -115 -81 -415 -129 -665 l-88 -455 -185
-3 -186 -2 -65 267 c-36 148 -80 330 -98 406 -18 75 -36 137 -39 137 -4 0 -19
-53 -34 -117 -15 -65 -59 -247 -98 -405 l-70 -288 -183 0 c-166 0 -184 2 -189
18 -3 9 -37 179 -75 377 -39 198 -97 495 -129 660 -32 165 -57 303 -55 308 2
4 82 7 178 7 157 0 174 -2 179 -17z m2217 -528 c98 -297 195 -594 216 -660
l38 -120 5 660 5 660 175 0 175 0 215 -362 215 -362 3 365 2 364 178 -2 177
-3 3 -682 2 -683 -179 0 -180 0 -213 357 -213 357 -3 -357 -2 -357 -373 0
-372 0 -29 110 -29 110 -203 0 -203 0 -12 -42 c-6 -24 -19 -72 -29 -108 l-16
-65 -192 -3 c-106 -1 -192 1 -192 6 0 4 68 215 151 468 83 252 180 549 216
659 36 110 69 208 75 218 8 16 26 17 210 15 l201 -3 178 -540z m2567 368 l2
-173 -190 0 -190 0 0 -510 0 -510 -190 0 -190 0 0 510 0 510 -185 0 -185 0 0
175 0 175 563 -2 562 -3 3 -172z m1512 2 l0 -175 -185 0 -185 0 0 -510 0 -510
-190 0 -190 0 0 510 0 510 -185 0 -185 0 0 175 0 175 560 0 560 0 0 -175z
m-330 -361 c0 -8 -4 -12 -10 -9 -5 3 -10 10 -10 16 0 5 5 9 10 9 6 0 10 -7 10
-16z m1466 -1299 c-3 -8 0 -15 7 -15 8 0 7 -4 -3 -10 -8 -5 -16 -7 -18 -5 -5
5 8 45 15 45 3 0 3 -7 -1 -15z m-6991 -120 c71 -26 155 -113 183 -188 56 -149
8 -326 -109 -404 l-39 -26 42 -19 c65 -29 106 -64 138 -121 102 -178 34 -450
-133 -531 -93 -45 -205 -56 -584 -56 l-343 0 0 686 0 685 398 -3 c359 -4 402
-6 447 -23z m1323 -110 c1 -71 0 -140 -3 -153 l-6 -23 -302 1 -302 1 -3 -100
-3 -101 286 0 285 0 0 -145 0 -145 -285 0 -285 0 0 -125 0 -125 315 0 315 0 0
-160 0 -160 -505 0 -505 0 0 685 0 685 498 -2 497 -3 3 -130z m487 -377 l0
-508 285 -2 285 -3 3 -172 2 -173 -475 0 -475 0 0 685 0 685 188 -2 187 -3 0
-507z m1025 -173 l0 -685 -190 0 -190 0 0 678 c0 373 3 682 7 685 3 4 89 7
190 7 l183 0 0 -685z m1614 433 c73 -269 120 -441 166 -603 l27 -99 16 54 c9
30 46 168 83 305 36 138 87 327 113 420 l46 170 193 3 c105 1 192 1 192 -1 0
-5 -7 -26 -173 -537 -75 -228 -166 -508 -202 -622 l-67 -208 -204 0 -203 0
-218 660 c-120 363 -220 660 -223 660 -3 0 -4 -55 -2 -122 2 -92 0 -123 -10
-129 -7 -5 -147 -9 -311 -9 l-298 0 3 -97 3 -98 283 -3 282 -2 0 -145 0 -145
-285 0 -285 0 0 -125 0 -125 315 0 315 0 0 -160 0 -160 -505 0 -505 0 0 685 0
685 693 0 693 0 68 -252z m1844 100 l-3 -153 -305 -2 -305 -2 0 -98 0 -98 283
-3 282 -2 0 -145 0 -145 -285 0 -285 0 0 -125 0 -125 320 0 320 0 0 -160 0
-160 -510 0 -510 0 0 678 c0 373 3 682 7 685 3 4 228 7 500 7 l494 0 -3 -152z
m536 37 c4 -10 -1 -15 -16 -15 -17 0 -18 2 -8 15 7 8 14 15 15 15 2 0 5 -7 9
-15z m356 -155 c0 -5 -7 -10 -16 -10 -8 0 -12 5 -9 10 3 6 10 10 16 10 5 0 9
-4 9 -10z m-240 -876 c0 -2 -9 -4 -21 -4 -11 0 -18 4 -14 10 5 8 35 3 35 -6z
m38 -19 c-3 -3 -9 2 -12 12 -6 14 -5 15 5 6 7 -7 10 -15 7 -18z m-194 -80 c3
-8 1 -15 -4 -15 -6 0 -10 7 -10 15 0 8 2 15 4 15 2 0 6 -7 10 -15z"/>
<path d="M585 10590 c3 -5 11 -10 16 -10 6 0 7 5 4 10 -3 6 -11 10 -16 10 -6
0 -7 -4 -4 -10z"/>
<path d="M150 10130 c-9 -6 -10 -10 -3 -10 6 0 15 5 18 10 8 12 4 12 -15 0z"/>
<path d="M660 7929 c0 -5 5 -7 10 -4 6 3 10 8 10 11 0 2 -4 4 -10 4 -5 0 -10
-5 -10 -11z"/>
<path d="M2200 6225 c0 -8 6 -15 14 -15 22 0 28 17 10 24 -22 9 -24 8 -24 -9z"/>
<path d="M2355 6200 c-3 -6 1 -7 9 -4 18 7 21 14 7 14 -6 0 -13 -4 -16 -10z"/>
<path d="M2100 6165 c0 -8 2 -15 4 -15 2 0 6 7 10 15 3 8 1 15 -4 15 -6 0 -10
-7 -10 -15z"/>
<path d="M3545 5600 c-3 -5 0 -7 9 -4 11 4 14 -1 12 -19 -2 -19 3 -27 18 -31
28 -7 32 1 11 24 -10 11 -14 20 -9 20 10 0 -17 20 -28 20 -4 0 -10 -4 -13 -10z"/>
<path d="M3812 5450 c2 -9 -3 -14 -12 -12 -12 3 -11 0 2 -14 14 -14 20 -16 30
-6 10 10 8 16 -6 30 -14 13 -17 14 -14 2z"/>
<path d="M3840 5415 c0 -2 5 -15 11 -29 15 -33 39 -42 39 -15 0 11 -7 22 -15
25 -8 4 -12 10 -9 15 3 5 -2 9 -10 9 -9 0 -16 -2 -16 -5z"/>
<path d="M4020 5290 c0 -5 5 -10 11 -10 5 0 7 5 4 10 -3 6 -8 10 -11 10 -2 0
-4 -4 -4 -10z"/>
<path d="M3473 5055 c0 -8 4 -12 8 -9 4 2 10 -2 12 -8 4 -8 6 -9 6 -2 1 6 -5
17 -12 23 -10 8 -14 7 -14 -4z"/>
<path d="M8555 3336 c-56 -21 -118 -92 -141 -163 -27 -83 -27 -322 0 -405 20
-62 72 -130 115 -152 82 -42 189 -26 256 38 60 58 77 116 82 292 6 161 -9 242
-55 309 -53 76 -169 113 -257 81z"/>
<path d="M3464 3046 l-61 -226 119 0 c86 0 118 3 118 12 0 10 -86 339 -109
417 -5 18 -23 -35 -67 -203z"/>
<path d="M1670 1320 l0 -122 121 4 121 3 30 34 c28 31 30 39 26 88 -4 42 -11
60 -32 81 -25 26 -32 27 -146 31 l-120 3 0 -122z"/>
<path d="M1678 925 c-5 -5 -8 -64 -8 -132 l0 -125 141 4 141 3 28 32 c37 41
47 92 28 141 -22 59 -59 73 -201 79 -67 3 -125 2 -129 -2z"/>
<path d="M70 13785 c0 -8 4 -15 10 -15 5 0 7 7 4 15 -4 8 -8 15 -10 15 -2 0
-4 -7 -4 -15z"/>
<path d="M5447 12353 c-9 -10 -17 -13 -17 -7 0 10 -126 11 -137 1 -3 -4 -15
-2 -25 4 -14 8 -23 8 -31 0 -7 -7 -15 -7 -26 2 -8 6 -12 7 -9 1 5 -7 -21 -10
-77 -10 -46 1 -81 -3 -78 -7 2 -4 -13 -7 -34 -6 -39 2 -79 -4 -147 -20 -21 -5
-47 -8 -57 -6 -11 2 -19 -1 -19 -6 0 -6 -3 -8 -8 -5 -4 2 -32 -2 -62 -10 -30
-8 -68 -17 -85 -19 -16 -2 -31 -9 -33 -14 -2 -5 -9 -8 -17 -5 -7 3 -16 0 -20
-5 -3 -6 -11 -9 -16 -5 -5 3 -15 2 -22 -3 -7 -5 -37 -17 -68 -27 -32 -10 -68
-29 -83 -42 -14 -13 -30 -24 -36 -24 -6 0 -8 -4 -5 -10 3 -5 -3 -15 -15 -22
-11 -7 -20 -19 -20 -26 0 -7 -3 -11 -7 -9 -10 5 -38 -24 -39 -40 -1 -7 -2 -19
-2 -27 -1 -7 -11 -16 -21 -19 -15 -3 -18 -11 -14 -28 3 -17 2 -20 -5 -10 -7 9
-12 10 -16 2 -4 -6 -4 -11 0 -11 4 0 -3 -9 -16 -20 -13 -11 -20 -20 -15 -20 4
0 -4 -9 -19 -21 -14 -11 -26 -27 -26 -35 0 -8 -5 -12 -10 -9 -11 7 -70 -50
-70 -67 0 -6 -7 -8 -14 -5 -11 4 -13 1 -9 -10 5 -13 2 -15 -11 -10 -10 4 -15
3 -11 -3 3 -6 1 -10 -5 -10 -6 0 -8 -5 -4 -11 4 -8 0 -9 -15 -4 -15 4 -21 3
-19 -6 2 -7 -8 -15 -22 -19 -21 -5 -25 -13 -28 -45 -2 -27 0 -36 7 -26 5 8 18
12 30 8 12 -3 28 1 36 10 13 13 15 12 11 -9 -3 -13 -5 -25 -5 -28 -1 -3 -6 2
-11 10 -8 12 -10 12 -10 1 0 -11 -3 -11 -17 0 -10 8 -14 9 -10 2 4 -6 3 -14
-3 -18 -5 -3 -10 -11 -10 -17 0 -6 6 -6 15 2 9 7 18 10 22 6 3 -3 1 -6 -6 -6
-7 0 -9 -5 -6 -10 4 -6 11 -7 17 -4 7 4 8 2 4 -5 -6 -8 -12 -9 -20 -2 -9 7
-16 7 -25 -2 -7 -6 -12 -7 -11 -2 5 22 -1 26 -16 11 -10 -11 -26 -14 -46 -11
-24 5 -31 2 -35 -15 -3 -11 -9 -17 -14 -15 -4 3 -12 -3 -18 -12 -7 -13 -10
-14 -11 -4 0 10 -5 9 -17 -5 -18 -19 -32 -25 -68 -28 -11 -1 -19 -8 -17 -15 1
-7 -2 -10 -8 -6 -6 4 -18 1 -26 -6 -8 -6 -27 -12 -42 -13 -20 -1 -26 -6 -24
-19 3 -16 1 -16 -18 -5 -17 11 -22 11 -29 -1 -5 -8 -16 -11 -26 -8 -9 4 -14 3
-10 -3 3 -6 -5 -10 -20 -10 -14 0 -43 -11 -65 -25 -21 -14 -45 -22 -53 -19 -8
3 -33 -5 -55 -16 -23 -12 -46 -19 -51 -16 -5 3 -11 3 -13 -2 -4 -11 -70 -56
-83 -57 -26 -2 -65 -18 -65 -27 0 -6 -6 -5 -15 2 -12 10 -15 10 -15 -4 0 -8
-11 -18 -25 -22 -14 -3 -25 -11 -25 -18 0 -7 -4 -6 -9 2 -7 11 -9 11 -14 -2
-4 -9 -14 -16 -22 -16 -10 0 -13 -5 -9 -12 4 -7 3 -8 -4 -4 -12 7 -90 -30
-104 -49 -5 -7 -8 -7 -8 0 0 6 -4 4 -8 -3 -5 -7 -19 -15 -33 -17 -13 -3 -29
-11 -35 -20 -6 -8 -14 -12 -17 -9 -9 10 -34 -20 -29 -34 2 -7 -5 -16 -17 -19
-11 -3 -18 -9 -15 -14 3 -5 -2 -9 -10 -9 -23 0 -28 -3 -51 -25 -12 -11 -19
-24 -17 -29 3 -5 -2 -7 -11 -3 -10 3 -17 2 -17 -4 0 -6 -5 -7 -12 -3 -6 4 -8
3 -5 -3 4 -6 -2 -18 -13 -28 -15 -14 -17 -21 -9 -32 8 -9 8 -13 1 -13 -6 0
-17 -10 -23 -22 -11 -21 -11 -22 4 -10 17 14 37 9 37 -9 0 -6 7 -17 15 -25 8
-9 15 -12 15 -8 0 5 5 3 12 -4 7 -7 22 -12 34 -12 13 0 26 -5 30 -11 3 -6 17
-9 30 -6 13 2 25 0 26 -4 2 -4 24 -10 49 -12 25 -3 59 -13 74 -23 16 -11 26
-13 21 -6 -8 13 0 12 79 -7 17 -5 38 -7 47 -5 9 1 19 -3 21 -10 3 -6 23 -11
48 -10 24 1 49 -1 54 -5 6 -3 28 -6 50 -6 22 0 45 -3 51 -7 6 -4 21 -6 32 -3
12 2 24 0 27 -6 4 -5 28 -9 54 -9 26 0 50 -3 54 -6 3 -3 36 -7 74 -10 128 -7
168 -11 200 -18 17 -4 58 -9 90 -12 116 -8 133 -11 149 -25 13 -11 18 -11 21
-1 7 18 20 15 44 -9 14 -14 29 -19 45 -16 13 2 24 1 24 -3 0 -18 113 -58 185
-66 17 -1 44 -5 60 -8 17 -3 89 -8 160 -10 72 -3 164 -8 205 -11 143 -12 386
-7 530 11 19 2 58 6 86 8 28 2 57 7 63 11 7 4 23 4 37 1 13 -4 24 -2 24 3 0 6
12 10 28 10 31 -1 98 8 127 18 29 10 24 9 160 38 46 9 177 48 270 80 55 18
115 36 133 40 17 4 32 11 32 16 0 6 4 8 9 5 12 -8 163 43 185 62 11 10 16 11
12 5 -5 -9 -2 -11 8 -7 9 3 13 11 9 17 -4 6 -1 7 7 2 7 -4 15 -4 19 1 8 12 36
29 89 55 23 12 42 25 42 31 0 5 4 6 10 3 5 -3 15 3 22 15 7 11 19 20 26 20 8
0 10 5 6 12 -5 7 -2 9 7 6 13 -5 42 15 34 24 -2 2 7 5 21 6 14 1 38 8 52 16
76 42 171 84 176 79 3 -4 6 -2 6 4 0 6 11 11 25 11 13 0 39 6 57 15 139 64
168 77 178 77 5 0 10 4 10 8 0 4 17 14 38 21 20 8 48 22 61 32 13 10 27 16 32
13 5 -3 16 2 25 10 8 9 23 16 32 16 10 0 26 6 37 14 11 7 37 16 58 20 20 4 37
12 37 18 0 5 6 8 14 5 8 -3 20 1 27 9 9 11 14 12 20 3 4 -8 9 -4 14 10 4 15
15 21 36 21 16 0 29 4 29 9 0 5 12 14 28 20 36 14 102 53 178 104 49 32 67 51
87 94 13 29 22 51 18 49 -4 -3 -13 9 -20 25 -7 16 -19 29 -27 29 -9 0 -12 5
-8 13 4 6 4 9 0 5 -4 -3 -29 4 -54 17 -26 13 -59 27 -74 30 -16 4 -28 10 -28
14 0 3 -12 7 -27 7 -16 1 -53 9 -83 19 -30 9 -66 19 -80 22 -14 3 -29 11 -33
17 -6 8 -10 8 -13 -1 -4 -9 -13 -9 -32 -2 -15 6 -28 10 -29 10 -2 -1 -4 -1 -5
0 -2 0 -21 2 -43 3 -36 2 -81 16 -108 33 -6 3 -7 1 -3 -5 4 -7 3 -12 -3 -12
-5 0 -13 5 -17 11 -4 8 -9 7 -15 -2 -7 -11 -9 -10 -9 4 0 21 -1 21 -36 2 -20
-10 -32 -11 -41 -4 -6 6 -18 7 -24 3 -8 -4 -9 -3 -5 4 8 13 -35 27 -56 19 -7
-2 -21 0 -30 5 -12 6 -18 5 -18 -2 0 -7 -5 -8 -12 -3 -17 10 -88 12 -82 1 3
-4 -2 -5 -10 -2 -9 3 -13 10 -10 15 3 5 0 9 -5 9 -6 0 -11 -4 -11 -10 0 -5 -5
-10 -11 -10 -5 0 -8 3 -6 8 3 4 -28 7 -69 6 -58 -1 -77 3 -85 15 -8 12 -8 10
-3 -9 5 -20 4 -23 -7 -12 -7 6 -20 12 -28 12 -8 0 -23 8 -34 17 -17 16 -20 16
-30 2 -7 -9 -18 -14 -26 -11 -8 3 -11 0 -7 -7 4 -6 3 -11 -3 -11 -6 0 -15 10
-22 21 -6 12 -14 18 -18 13 -7 -11 -43 -10 -61 1 -7 4 -16 2 -21 -6 -6 -10 -9
-11 -9 -1 0 6 -4 12 -10 12 -5 0 -7 -8 -4 -17 4 -11 3 -14 -3 -7 -4 6 -18 10
-30 9 -33 -2 -52 12 -33 25 11 7 11 10 2 10 -7 0 -15 -7 -19 -16 -4 -12 -8
-13 -13 -3 -5 7 -15 9 -26 4 -11 -5 -23 -7 -28 -6 -18 4 -46 -11 -40 -21 4 -7
2 -8 -4 -4 -9 5 -9 13 -1 29 9 18 9 20 -1 10 -9 -9 -19 -9 -32 -2 -11 6 -22 8
-26 5 -3 -3 0 -6 7 -6 7 0 9 -4 6 -10 -3 -6 1 -7 12 -4 16 5 16 4 -1 -7 -15
-9 -24 -9 -37 0 -28 17 -31 13 -9 -9 11 -11 25 -20 30 -20 6 0 10 -4 10 -10 0
-16 -12 -12 -38 13 -14 12 -22 16 -18 10 5 -8 1 -13 -11 -14 -16 0 -16 -1 2
-9 26 -10 68 -50 61 -57 -3 -3 -21 6 -41 21 -19 15 -35 22 -35 16 0 -6 -4 -9
-9 -6 -5 3 -14 -1 -20 -8 -8 -10 -9 -16 -1 -21 5 -3 10 -2 10 2 0 12 38 14 45
2 4 -5 -4 -9 -16 -9 -12 0 -31 -8 -42 -17 -19 -17 -20 -17 -14 0 4 11 1 17 -8
17 -23 0 -18 17 6 23 12 3 18 10 14 16 -10 17 -21 13 -35 -14 -9 -18 -19 -23
-32 -19 -10 3 -18 1 -18 -4 0 -5 -10 -8 -22 -7 -15 1 -22 8 -20 18 1 8 -3 19
-9 23 -7 4 -9 3 -6 -4 10 -14 -2 -42 -18 -42 -7 0 -19 10 -28 23 -8 12 -18 19
-23 14 -4 -4 0 -13 10 -20 16 -12 15 -14 -8 -36 l-26 -24 -25 27 c-14 15 -22
32 -19 38 5 7 2 8 -6 3 -10 -6 -12 -4 -7 9 4 10 3 15 -4 11 -5 -4 -7 -16 -3
-28 6 -19 5 -20 -10 -8 -9 8 -16 9 -16 3 0 -6 8 -13 18 -16 10 -4 19 -13 19
-20 0 -8 -6 -12 -14 -9 -7 3 -13 -1 -13 -8 0 -7 -3 -9 -7 -6 -3 4 -13 1 -21
-6 -13 -9 -14 -9 -8 1 7 11 -6 16 -41 15 -7 -1 -10 4 -6 10 4 6 -2 8 -15 5
-15 -4 -23 0 -27 13 -10 31 -30 22 -27 -12 1 -3 -5 -6 -13 -6 -10 0 -11 5 -4
19 5 10 6 17 2 16 -4 -1 -20 6 -36 16 -26 17 -29 18 -46 2 -11 -10 -26 -14
-37 -10 -16 5 -16 4 -4 -5 20 -14 26 -14 44 5 12 11 20 13 33 5 10 -6 12 -11
6 -11 -7 0 -13 -5 -13 -11 0 -5 5 -7 10 -4 17 10 11 -15 -7 -33 -16 -16 -16
-16 -11 0 6 13 1 16 -22 16 -16 -1 -27 -4 -25 -8 2 -4 -2 -7 -9 -7 -8 0 -11 8
-8 19 2 10 0 18 -6 18 -6 0 -12 6 -15 13 -2 6 -2 0 0 -15 3 -17 0 -28 -7 -28
-6 0 -9 4 -6 9 3 5 -2 12 -11 15 -9 4 -20 2 -23 -5 -6 -8 -9 -8 -15 1 -6 9 -9
9 -15 0 -5 -8 -13 -9 -24 -3 -16 9 -16 11 -1 23 13 11 15 10 9 -5 -6 -15 -5
-16 14 -4 15 10 18 16 9 21 -7 4 3 5 22 1 31 -6 34 -4 29 14 -5 19 -3 20 23
13 19 -6 29 -5 29 2 0 5 7 7 16 4 8 -3 12 -2 9 4 -8 13 -5 12 34 -1 17 -6 31
-16 31 -22 0 -6 3 -8 6 -5 3 4 -2 18 -11 32 -19 29 -11 34 16 10 18 -17 39
-12 39 9 0 7 -4 6 -10 -3 -5 -8 -12 -11 -16 -7 -12 11 13 30 30 24 10 -4 13
-13 10 -24 -5 -15 -4 -15 4 -3 6 8 9 17 6 21 -2 4 2 12 10 18 11 9 18 8 31 -6
17 -16 17 -16 10 6 -6 20 -4 23 10 18 9 -4 19 -7 21 -7 2 0 4 -10 4 -22 0 -16
3 -19 11 -11 8 8 8 17 0 31 -14 26 -14 32 -1 32 6 0 10 -6 10 -12 0 -7 11 -18
25 -25 14 -6 25 -7 25 -3 0 5 -10 12 -22 16 -22 7 -22 7 -3 15 28 11 43 10 25
-1 -13 -8 -12 -10 3 -10 9 0 25 9 34 20 17 19 17 19 38 0 20 -19 21 -19 21 0
0 10 -4 16 -8 14 -4 -3 -8 0 -8 5 0 19 30 12 30 -6 1 -11 6 -6 14 13 13 28 40
50 59 46 12 -3 8 8 -10 26 -14 14 -16 15 -11 1 4 -9 -2 -20 -14 -28 -17 -10
-23 -9 -39 5 -15 13 -16 20 -8 31 7 7 9 16 6 19 -3 3 -10 -4 -16 -15 -7 -12
-17 -18 -26 -15 -8 4 -12 10 -9 15 3 5 1 9 -5 9 -5 0 -12 -6 -14 -12 -3 -8 -6
-6 -6 5 -1 9 -6 17 -12 17 -5 0 -7 -5 -3 -11 4 -8 1 -8 -12 -1 -11 5 -25 7
-31 5 -7 -3 -13 0 -13 6 0 6 6 11 13 11 8 0 7 3 -3 10 -11 7 -23 2 -45 -18
-16 -15 -23 -19 -16 -9 15 19 2 24 -17 5 -7 -7 -12 -8 -12 -4 0 5 -6 4 -13 -2
-10 -8 -16 -6 -26 9 -11 19 -10 20 8 14 11 -3 23 0 27 7 12 19 14 38 3 38 -5
0 -9 5 -9 10 0 6 13 4 30 -5 17 -9 30 -11 30 -5 0 5 -7 10 -15 10 -9 0 -21 11
-27 25 -6 14 -16 25 -22 25 -6 0 2 11 18 25 16 14 25 25 19 25 -17 0 -58 -41
-55 -56 5 -25 -6 -15 -16 15 -9 26 -8 28 11 24 22 -5 22 -5 2 11 -19 16 -19
16 8 10 16 -4 27 -2 27 5 0 6 -8 8 -17 4 -10 -3 -15 -3 -11 2 4 4 -5 23 -19
41 -21 29 -27 32 -37 20 -10 -13 -13 -13 -30 -1 -11 8 -14 15 -7 15 7 0 9 5 6
10 -9 15 -25 12 -25 -4 0 -8 -4 -17 -9 -20 -5 -3 -8 2 -7 12 1 13 -5 16 -24
14 -19 -2 -22 -1 -10 7 8 5 12 12 9 15 -3 3 -13 -2 -22 -11z m23 -27 c0 -3 -4
-8 -10 -11 -5 -3 -10 -1 -10 4 0 6 5 11 10 11 6 0 10 -2 10 -4z m122 -76 c-17
-18 -20 -19 -25 -6 -4 9 -1 15 6 13 8 -1 11 9 9 28 l-3 30 16 -22 c15 -21 15
-24 -3 -43z m-34 32 c2 -7 -2 -10 -12 -6 -9 3 -16 11 -16 16 0 13 23 5 28 -10z
m18 -79 c-3 -3 -1 -12 5 -19 7 -8 7 -14 -1 -19 -12 -7 -25 19 -16 34 4 5 2 12
-4 16 -5 3 -10 11 -10 16 0 6 7 3 16 -6 9 -9 14 -19 10 -22z m74 -96 c0 -1
-12 -3 -27 -4 -15 0 -21 2 -14 7 10 5 9 9 -3 13 -9 4 -16 11 -16 17 0 6 14 2
30 -10 17 -12 30 -22 30 -23z m950 -211 c0 -3 -4 -8 -10 -11 -5 -3 -10 -1 -10
4 0 6 5 11 10 11 6 0 10 -2 10 -4z m-1093 -33 c-3 -2 -14 0 -24 7 -16 10 -16
11 0 6 9 -3 17 0 18 7 0 8 2 8 6 -1 3 -7 3 -16 0 -19z m-213 -81 c3 -9 9 -23
12 -29 3 -8 -1 -13 -11 -13 -9 0 -14 4 -11 9 4 5 2 11 -4 13 -6 2 -12 13 -14
25 -5 26 18 22 28 -5z m-28 -40 c-3 -3 -6 0 -6 7 0 8 -5 9 -19 1 -13 -7 -22
-7 -26 0 -3 5 -2 10 3 10 5 0 13 10 16 23 6 22 7 22 22 -6 9 -16 13 -31 10
-35z m705 31 c-12 -20 -14 -14 -5 12 4 9 9 14 11 11 3 -2 0 -13 -6 -23z m42
-13 c-7 -8 -22 24 -16 34 4 5 10 1 13 -10 4 -10 6 -21 3 -24z m-63 24 c0 -2
-12 -9 -27 -15 -18 -7 -30 -6 -37 1 -8 8 -6 9 7 5 9 -4 17 -3 17 2 0 5 9 9 20
10 11 1 20 0 20 -3z m-556 -49 c-4 -8 -8 -15 -10 -15 -2 0 -4 7 -4 15 0 8 4
15 10 15 5 0 7 -7 4 -15z m-714 -26 c0 -5 5 -7 10 -4 6 3 10 -1 10 -9 0 -9 5
-16 12 -16 6 0 8 -3 5 -6 -4 -4 -13 -1 -21 5 -8 7 -20 10 -25 6 -7 -4 -8 1 -4
11 5 13 3 15 -7 9 -9 -5 -11 -4 -6 3 9 15 26 16 26 1z m-172 -34 c-3 -3 -9 2
-12 12 -6 14 -5 15 5 6 7 -7 10 -15 7 -18z m-205 0 c15 -1 27 1 27 6 0 5 4 9
10 9 5 0 9 -10 7 -21 -1 -17 4 -22 27 -25 35 -4 42 -10 21 -17 -8 -4 -15 -2
-15 2 0 5 -16 5 -35 1 -29 -7 -34 -6 -25 5 8 10 7 14 -7 17 -19 4 -53 -10 -65
-26 -4 -6 -13 -4 -23 4 -15 12 -16 12 -13 -2 3 -16 1 -18 -24 -18 -9 0 -8 4 2
10 13 8 12 10 -4 10 -20 0 -20 0 0 16 18 15 18 15 -3 5 -15 -8 -20 -17 -15
-33 4 -17 2 -20 -11 -15 -11 4 -14 2 -10 -9 6 -17 -22 -20 -33 -2 -5 8 -11 6
-19 -6 -11 -15 -13 -14 -17 9 -7 35 11 43 34 15 l19 -23 -4 36 c-2 20 0 34 5
31 5 -3 20 1 33 10 24 16 60 12 49 -5 -8 -14 6 -11 22 5 12 13 12 15 -4 20 -9
3 -3 3 13 0 17 -3 42 -7 58 -9z m93 -22 c-3 -4 -6 -2 -6 4 0 6 -10 9 -22 6
-23 -4 -23 -4 -3 11 17 15 20 15 28 0 5 -8 6 -18 3 -21z m125 4 c-10 -9 -11
-8 -5 6 3 10 9 15 12 12 3 -3 0 -11 -7 -18z m72 8 c-3 -9 -8 -14 -10 -11 -3 3
-2 9 2 15 9 16 15 13 8 -4z m-108 -5 c-3 -5 -12 -10 -18 -10 -7 0 -6 4 3 10
19 12 23 12 15 0z m-418 -36 c-9 -9 -28 6 -21 18 4 6 10 6 17 -1 6 -6 8 -13 4
-17z m223 -4 c-8 -5 -17 -7 -19 -4 -3 3 1 9 9 14 8 5 17 7 19 4 3 -3 -1 -9 -9
-14z m-268 -35 c-3 -5 1 -5 9 2 9 8 20 9 29 3 12 -8 12 -10 1 -10 -8 0 -11 -6
-7 -16 5 -14 4 -15 -8 -5 -8 7 -20 10 -26 6 -9 -6 -15 8 -11 28 1 5 -3 6 -9 2
-6 -3 -8 -11 -5 -16 4 -5 1 -9 -4 -9 -14 0 -14 6 1 29 9 14 14 16 24 7 6 -6 9
-15 6 -21z m28 31 c0 -11 -19 -15 -25 -6 -3 5 1 10 9 10 9 0 16 -2 16 -4z
m-210 -76 c0 -5 -2 -10 -4 -10 -3 0 -8 5 -11 10 -3 6 -1 10 4 10 6 0 11 -4 11
-10z m450 -662 c0 -5 -11 -1 -25 8 -14 9 -25 18 -25 20 0 2 11 -2 25 -8 14 -6
25 -15 25 -20z"/>
<path d="M5709 12207 c6 -14 7 -29 3 -33 -4 -5 0 -3 9 4 9 6 18 9 22 6 3 -3 3
4 0 17 -6 22 -7 22 -14 3 -6 -16 -8 -16 -8 -2 -1 9 -5 20 -11 23 -7 4 -7 -2
-1 -18z"/>
<path d="M628 12212 c-22 -4 -23 -16 -3 -32 20 -16 32 -9 26 15 -4 13 -13 19
-23 17z"/>
<path d="M5670 12210 c0 -5 5 -10 11 -10 5 0 7 5 4 10 -3 6 -8 10 -11 10 -2 0
-4 -4 -4 -10z"/>
<path d="M5680 12170 c0 -11 2 -20 4 -20 2 0 6 9 9 20 3 11 1 20 -4 20 -5 0
-9 -9 -9 -20z"/>
<path d="M5741 12143 c7 -10 14 -19 15 -21 1 -2 4 4 8 13 3 9 2 13 -4 10 -6
-3 -10 -1 -10 4 0 6 -5 11 -11 11 -8 0 -7 -6 2 -17z"/>
<path d="M5710 12119 c0 -5 5 -7 10 -4 6 3 10 8 10 11 0 2 -4 4 -10 4 -5 0
-10 -5 -10 -11z"/>
<path d="M5675 12100 c-3 -5 -2 -10 4 -10 5 0 13 5 16 10 3 6 2 10 -4 10 -5 0
-13 -4 -16 -10z"/>
<path d="M5951 12054 c0 -11 3 -14 6 -6 3 7 2 16 -1 19 -3 4 -6 -2 -5 -13z"/>
<path d="M5882 12043 c-15 -6 -6 -23 12 -23 7 0 13 7 13 15 0 16 -4 17 -25 8z"/>
<path d="M5980 12046 c0 -2 8 -10 18 -17 15 -13 16 -12 3 4 -13 16 -21 21 -21
13z"/>
<path d="M5914 11974 c-17 -14 -17 -15 -1 -10 10 3 23 6 28 6 5 0 9 5 9 10 0
14 -13 12 -36 -6z"/>
<path d="M5814 11915 c-15 -11 -16 -14 -4 -15 21 0 44 16 33 23 -6 4 -19 0
-29 -8z"/>
<path d="M5994 11881 c1 -42 9 -53 20 -26 3 8 1 15 -5 15 -6 0 -7 4 -4 10 3 5
2 17 -3 26 -6 11 -8 3 -8 -25z"/>
<path d="M5850 11896 c0 -2 7 -7 16 -10 8 -3 12 -2 9 4 -6 10 -25 14 -25 6z"/>
<path d="M6070 11890 c-9 -6 -10 -10 -3 -10 6 0 15 5 18 10 8 12 4 12 -15 0z"/>
<path d="M5630 11882 c0 -7 5 -12 11 -12 5 0 8 -4 4 -9 -3 -5 -1 -12 4 -15 19
-12 20 12 1 29 -12 10 -20 13 -20 7z"/>
<path d="M5955 11870 c-3 -5 -2 -10 4 -10 5 0 13 5 16 10 3 6 2 10 -4 10 -5 0
-13 -4 -16 -10z"/>
<path d="M6045 11861 c-3 -5 -1 -12 4 -15 5 -3 11 1 15 9 6 16 -9 21 -19 6z"/>
<path d="M5863 11845 c0 -8 4 -12 9 -9 5 3 6 10 3 15 -9 13 -12 11 -12 -6z"/>
<path d="M5572 11831 c-11 -7 -11 -9 0 -14 9 -3 15 1 15 9 0 8 -1 14 -1 14 -1
0 -7 -4 -14 -9z"/>
<path d="M5945 11829 c-4 -6 -5 -12 -2 -15 2 -3 7 2 10 11 7 17 1 20 -8 4z"/>
<path d="M5630 11819 c0 -5 5 -7 10 -4 6 3 10 8 10 11 0 2 -4 4 -10 4 -5 0
-10 -5 -10 -11z"/>
<path d="M5651 11808 c-7 -11 -8 -17 -2 -13 6 3 11 1 11 -4 0 -16 17 -13 23 3
3 8 0 19 -7 25 -8 7 -15 4 -25 -11z"/>
<path d="M5793 11789 c14 -22 27 -25 27 -5 0 7 -9 16 -19 19 -17 4 -18 2 -8
-14z"/>
<path d="M5693 11783 c4 -6 2 -13 -5 -15 -8 -3 -6 -7 5 -11 23 -9 30 8 10 24
-9 8 -14 9 -10 2z"/>
<path d="M1161 11274 c0 -11 3 -14 6 -6 3 7 2 16 -1 19 -3 4 -6 -2 -5 -13z"/>
<path d="M1206 10933 c-6 -14 -5 -15 5 -6 7 7 10 15 7 18 -3 3 -9 -2 -12 -12z"/>
<path d="M1176 10927 c3 -10 9 -15 12 -12 3 3 0 11 -7 18 -10 9 -11 8 -5 -6z"/>
<path d="M1093 10894 c0 -15 24 -27 38 -18 13 7 3 21 -19 26 -11 3 -19 0 -19
-8z"/>
<path d="M1090 10845 c-7 -9 -10 -18 -7 -21 3 -3 10 4 17 15 13 25 8 27 -10 6z"/>
<path d="M173 10560 c-23 -9 -32 -30 -13 -30 6 0 10 -6 10 -14 0 -8 10 -16 23
-18 16 -2 25 4 34 26 20 44 -1 57 -54 36z"/>
<path d="M1645 9133 c-32 -8 -62 -37 -59 -56 1 -11 -4 -17 -16 -17 -10 0 -20
-7 -24 -15 -7 -20 41 -32 65 -16 44 27 78 -9 38 -40 -20 -15 -21 -17 -4 -26
13 -8 30 -3 68 18 37 20 54 25 59 16 10 -16 24 0 32 38 5 24 4 27 -4 12 -12
-19 -32 -14 -24 6 3 8 -2 25 -9 40 l-14 27 -19 -21 c-11 -12 -28 -19 -43 -17
-21 2 -26 8 -26 31 1 15 1 26 0 26 0 -1 -9 -4 -20 -6z m-35 -87 c0 -3 -4 -8
-10 -11 -5 -3 -10 -1 -10 4 0 6 5 11 10 11 6 0 10 -2 10 -4z"/>
<path d="M1880 9098 c-11 -12 -20 -18 -20 -12 0 5 -5 1 -11 -10 -9 -14 -8 -20
2 -26 9 -6 20 2 36 23 35 47 30 65 -7 25z"/>
<path d="M1757 8911 c-5 -22 37 -48 49 -30 4 8 9 7 15 -2 5 -8 9 -9 9 -3 0 17
-23 41 -46 48 -16 5 -23 2 -27 -13z"/>
<path d="M1714 8839 c-4 -8 -3 -9 4 -5 8 5 14 -8 19 -36 4 -24 6 -46 5 -50 -2
-7 22 -12 42 -9 4 1 14 -4 22 -10 10 -8 14 -8 14 0 0 6 9 11 19 11 32 0 34 29
3 36 -15 4 -29 10 -32 13 -5 6 -55 41 -77 54 -6 4 -15 2 -19 -4z"/>
<path d="M1133 8516 c-3 -5 -1 -6 5 -2 5 3 12 2 14 -3 1 -5 9 -3 15 4 10 11 9
13 -8 12 -11 -1 -23 -6 -26 -11z"/>
<path d="M1036 8327 c3 -10 9 -15 12 -12 3 3 0 11 -7 18 -10 9 -11 8 -5 -6z"/>
<path d="M5817 8110 c-33 -39 -13 -61 30 -33 38 24 45 37 25 45 -28 11 -37 9
-55 -12z"/>
<path d="M5149 8097 c7 -7 14 -8 21 -1 6 6 2 10 -12 11 -16 2 -18 -1 -9 -10z"/>
<path d="M5454 8084 c3 -8 2 -13 -2 -10 -4 3 -13 -4 -19 -14 -10 -15 -9 -17 7
-13 25 7 44 29 35 43 -10 16 -28 12 -21 -6z"/>
<path d="M6126 7739 c-14 -20 -12 -49 4 -49 13 0 40 36 40 53 0 24 -26 21 -44
-4z"/>
<path d="M4550 7664 c0 -8 5 -12 10 -9 6 4 8 11 5 16 -9 14 -15 11 -15 -7z"/>
<path d="M5313 7483 c-24 -5 -53 -33 -35 -33 6 0 9 -6 6 -13 -3 -10 6 -13 38
-11 33 1 44 -2 48 -15 4 -13 12 -16 30 -11 l25 6 -42 42 c-23 23 -44 41 -45
41 -2 -1 -13 -4 -25 -6z"/>
<path d="M5204 7454 c4 -10 0 -18 -13 -21 -29 -8 -33 -39 -5 -53 28 -15 58 -6
50 16 -3 8 -2 13 2 10 4 -3 13 4 20 14 10 17 8 22 -18 35 -37 19 -44 19 -36
-1z"/>
<path d="M6333 7445 c0 -9 4 -14 9 -13 5 2 10 8 10 13 0 5 -5 11 -10 13 -5 1
-9 -4 -9 -13z"/>
<path d="M2008 7414 c-4 -3 -14 -7 -25 -9 -10 -2 -19 -4 -21 -4 -1 -1 5 -12
14 -26 11 -17 12 -25 5 -25 -18 0 -4 -17 18 -23 17 -4 19 -2 10 21 -6 15 -7
23 -3 19 10 -9 37 30 29 43 -7 11 -19 13 -27 4z"/>
<path d="M4019 7385 c-1 -3 -3 -9 -4 -15 -1 -5 -3 -15 -4 -21 0 -5 -5 -8 -10
-4 -5 3 -13 1 -16 -5 -5 -8 -11 -7 -21 1 -11 9 -15 8 -20 -5 -6 -17 -58 -49
-66 -41 -2 2 -3 -10 -3 -28 2 -36 26 -80 63 -114 29 -27 33 -28 26 -9 -8 22
10 26 41 10 29 -15 95 -15 106 0 5 7 44 -7 91 -31 5 -2 3 8 -2 23 -13 33 -6
56 15 48 9 -4 17 1 21 10 9 25 -2 31 -32 17 -14 -6 -31 -8 -37 -4 -7 4 -19 6
-29 5 -9 -2 -19 2 -22 7 -4 6 -13 8 -21 5 -15 -6 -75 34 -75 50 0 5 -7 17 -15
26 -13 14 -12 16 5 16 10 0 16 -4 14 -8 -8 -13 13 -9 23 5 5 6 10 24 12 40 2
22 -2 27 -18 27 -12 0 -22 -2 -22 -5z"/>
<path d="M3792 7359 c-7 -12 -11 -24 -7 -27 3 -4 9 -1 14 6 5 8 13 2 25 -18
18 -32 36 -39 36 -16 0 7 -10 17 -22 21 -13 3 -18 9 -12 11 15 6 6 44 -10 44
-6 0 -17 -9 -24 -21z"/>
<path d="M5020 7370 c0 -5 5 -10 10 -10 6 0 10 5 10 10 0 6 -4 10 -10 10 -5 0
-10 -4 -10 -10z"/>
<path d="M4956 7310 c5 -8 9 -18 9 -22 0 -3 3 -9 7 -13 3 -4 5 0 4 9 -1 9 -8
22 -16 29 -10 10 -11 9 -4 -3z"/>
<path d="M5482 7298 c-17 -17 -15 -24 7 -24 14 0 17 4 11 12 -6 6 -7 14 -3 17
3 4 4 7 2 7 -3 0 -10 -5 -17 -12z"/>
<path d="M2480 7270 c-6 -11 -20 -20 -30 -20 -27 0 -25 -15 3 -31 57 -36 127
12 77 53 -28 23 -37 23 -50 -2z"/>
<path d="M5447 7259 c12 -12 25 -20 28 -17 3 3 -7 13 -22 23 l-28 17 22 -23z"/>
<path d="M4972 7243 c2 -10 11 -19 21 -21 16 -3 17 -1 5 17 -16 25 -31 27 -26
4z"/>
<path d="M2113 7227 c-3 -6 -1 -7 5 -3 7 4 12 3 12 -3 0 -5 12 -8 28 -6 15 1
35 -4 45 -13 15 -14 17 -13 17 4 0 16 2 17 11 4 8 -12 10 -12 7 -1 -2 8 -13
16 -24 18 -50 9 -95 9 -101 0z"/>
<path d="M2365 7186 c0 -13 3 -22 7 -20 3 2 8 0 10 -5 1 -4 11 -5 21 -2 16 6
16 8 2 29 -21 29 -40 28 -40 -2z"/>
<path d="M4850 7166 c0 -8 4 -17 9 -20 5 -4 7 3 4 14 -6 23 -13 26 -13 6z"/>
<path d="M5940 7169 c0 -5 5 -7 10 -4 6 3 10 8 10 11 0 2 -4 4 -10 4 -5 0 -10
-5 -10 -11z"/>
<path d="M2196 7125 c-4 -10 3 -17 22 -21 15 -3 38 -10 52 -16 42 -19 50 -17
50 7 0 13 6 25 13 28 6 2 1 5 -13 5 -14 0 -46 2 -71 6 -36 5 -48 3 -53 -9z"/>
<path d="M3986 7118 c3 -5 10 -6 15 -3 13 9 11 12 -6 12 -8 0 -12 -4 -9 -9z"/>
<path d="M4396 7064 c-5 -13 -4 -14 7 -6 10 9 17 8 26 -1 11 -10 13 -9 9 3 -7
21 -34 24 -42 4z"/>
<path d="M2156 6955 c-17 -17 -22 -40 -7 -31 4 3 13 -6 20 -20 13 -29 14 -35
4 -32 -5 1 -21 -5 -38 -15 -16 -9 -26 -16 -21 -17 5 0 1 -10 -10 -22 -10 -12
-13 -18 -6 -14 7 4 14 2 17 -6 3 -7 22 -14 43 -15 27 -2 33 0 22 7 -13 8 -12
10 3 10 9 0 17 5 17 12 0 6 3 8 7 5 3 -4 12 -2 20 5 10 8 17 8 25 0 7 -7 17
-12 23 -12 5 0 3 5 -5 11 -12 8 -10 9 10 7 33 -4 53 44 28 68 -19 19 -68 27
-68 11 0 -5 -3 -7 -7 -4 -3 4 -12 2 -20 -5 -10 -8 -12 -8 -8 3 3 8 -3 27 -14
42 -17 26 -19 27 -35 12z"/>
<path d="M4090 6961 c0 -7 -5 -9 -12 -5 -10 6 -10 4 0 -8 15 -18 13 -36 -6
-56 -11 -12 -10 -18 2 -36 8 -11 21 -20 30 -20 9 1 13 -2 10 -7 -11 -18 12 -9
29 12 16 18 16 25 5 55 -13 36 -58 87 -58 65z"/>
<path d="M6670 6826 c0 -3 9 -10 20 -16 11 -6 20 -8 20 -6 0 3 -9 10 -20 16
-11 6 -20 8 -20 6z"/>
<path d="M6710 6779 c0 -15 18 -19 23 -6 3 8 -1 14 -9 14 -8 0 -14 -4 -14 -8z"/>
<path d="M6912 6762 c-12 -2 -20 -7 -18 -11 3 -4 -5 -7 -16 -7 -12 1 -27 -8
-32 -19 -9 -16 -19 -19 -54 -17 l-44 3 19 -25 c13 -19 26 -25 50 -24 18 1 35
-1 39 -4 3 -4 15 2 27 13 27 25 43 24 84 -7 36 -27 53 -25 53 8 0 12 -3 18 -6
15 -8 -8 -39 30 -48 59 -6 21 -12 23 -54 16z"/>
<path d="M2348 6667 c5 -20 9 -22 60 -31 l33 -6 -16 28 c-13 21 -24 28 -49 28
-27 0 -32 -4 -28 -19z"/>
<path d="M8846 6683 c-10 -10 -7 -35 4 -28 6 3 10 1 10 -4 0 -15 17 -14 23 2
5 14 -27 40 -37 30z"/>
<path d="M3980 6649 c0 -5 -4 -7 -10 -4 -14 9 -12 -1 3 -13 10 -8 13 -6 14 9
1 10 0 19 -3 19 -2 0 -4 -5 -4 -11z"/>
<path d="M4005 6650 c-3 -5 -2 -10 4 -10 5 0 13 5 16 10 3 6 2 10 -4 10 -5 0
-13 -4 -16 -10z"/>
<path d="M9585 6631 c-3 -5 4 -13 16 -16 17 -6 19 -9 8 -16 -8 -5 -9 -9 -4 -9
6 0 17 5 25 10 9 6 10 10 3 10 -6 0 -18 7 -27 15 -8 8 -17 11 -21 6z"/>
<path d="M8716 6621 c-3 -4 3 -16 14 -26 18 -16 18 -16 13 4 -6 25 -19 35 -27
22z"/>
<path d="M9123 6575 c0 -11 4 -12 14 -3 11 8 12 7 7 -6 -5 -12 -2 -15 10 -10
20 8 21 20 0 28 -24 9 -31 7 -31 -9z"/>
<path d="M8802 6571 c-11 -7 -10 -9 3 -14 9 -4 14 -3 10 2 -3 5 1 12 7 14 7 3
9 6 3 6 -5 0 -16 -3 -23 -8z"/>
<path d="M8746 6558 c3 -5 10 -6 15 -3 13 9 11 12 -6 12 -8 0 -12 -4 -9 -9z"/>
<path d="M6761 6543 c-11 -13 -11 -17 1 -29 19 -19 47 -8 41 16 -7 25 -25 31
-42 13z"/>
<path d="M2350 6520 c-9 -6 -10 -10 -3 -10 6 0 15 5 18 10 8 12 4 12 -15 0z"/>
<path d="M9455 6501 c-6 -11 13 -26 22 -17 4 3 1 6 -6 6 -7 0 -9 5 -6 10 3 6
4 10 1 10 -3 0 -7 -4 -11 -9z"/>
<path d="M7000 6449 c0 -5 5 -7 10 -4 6 3 10 8 10 11 0 2 -4 4 -10 4 -5 0 -10
-5 -10 -11z"/>
<path d="M9430 6446 c0 -2 7 -7 16 -10 8 -3 12 -2 9 4 -6 10 -25 14 -25 6z"/>
<path d="M8060 6412 c0 -13 23 -32 39 -32 11 0 9 5 -7 20 -23 21 -32 25 -32
12z"/>
<path d="M8280 6403 c0 -14 15 -29 33 -36 14 -5 16 -3 8 12 -6 10 -7 21 -4 25
3 3 -3 6 -15 6 -12 0 -22 -3 -22 -7z"/>
<path d="M3770 6273 c0 -11 12 -25 30 -40 12 -9 19 -8 34 3 20 14 20 14 0 29
-20 15 -64 20 -64 8z"/>
<path d="M3892 6235 c2 -5 10 -22 18 -38 12 -25 11 -29 -8 -48 -12 -11 -22
-24 -22 -30 0 -13 42 -28 55 -21 6 4 19 8 29 9 27 5 29 8 22 38 -5 18 -13 25
-31 25 -16 0 -25 6 -25 15 0 9 -10 26 -21 38 -12 12 -20 18 -17 12z"/>
<path d="M3750 5837 c0 -8 7 -17 15 -21 8 -3 15 -2 15 3 0 5 -7 14 -15 21 -12
10 -15 10 -15 -3z"/>
</g>
</svg>
